<svg width="475" height="320" viewBox="0 0 475 320" fill="none" xmlns="http://www.w3.org/2000/svg">
<rect width="475" height="320" fill="#F7FBFD"/>
<path d="M260.971 299.3C324.628 299.3 376.232 296.824 376.232 293.77C376.232 290.716 324.628 288.24 260.971 288.24C197.314 288.24 145.71 290.716 145.71 293.77C145.71 296.824 197.314 299.3 260.971 299.3Z" fill="#E3E5FC"/>
<path d="M409.829 47.6683C409.829 40.3628 403.853 34.3866 396.548 34.3866H125.868C118.562 34.3866 112.586 40.3628 112.586 47.6683V77.8712H409.832V47.6683H409.829Z" fill="#A7ADFF"/>
<rect x="112.583" y="77.8711" width="297.246" height="180.508" fill="#E3E5FC"/>
<path d="M167.972 134.951H141.506C137.651 134.951 134.496 131.796 134.496 127.941V104.003C134.496 100.148 137.651 96.9932 141.506 96.9932H167.972C171.827 96.9932 174.982 100.148 174.982 104.003V127.941C174.982 131.796 171.827 134.951 167.972 134.951Z" fill="white"/>
<path d="M238.62 134.951H212.154C208.299 134.951 205.144 131.796 205.144 127.941V104.003C205.144 100.148 208.299 96.9932 212.154 96.9932H238.62C242.475 96.9932 245.63 100.148 245.63 104.003V127.941C245.63 131.796 242.475 134.951 238.62 134.951Z" fill="white"/>
<path d="M309.268 134.951H282.802C278.947 134.951 275.792 131.796 275.792 127.941V104.003C275.792 100.148 278.947 96.9932 282.802 96.9932H309.268C313.123 96.9932 316.278 100.148 316.278 104.003V127.941C316.278 131.796 313.123 134.951 309.268 134.951Z" fill="white"/>
<path d="M379.915 134.951H353.449C349.594 134.951 346.439 131.796 346.439 127.941V104.003C346.439 100.148 349.594 96.9932 353.449 96.9932H379.915C383.771 96.9932 386.926 100.148 386.926 104.003V127.941C386.926 131.796 383.771 134.951 379.915 134.951Z" fill="white"/>
<path d="M167.972 185.998H141.506C137.651 185.998 134.496 182.843 134.496 178.988V155.05C134.496 151.195 137.651 148.04 141.506 148.04H167.972C171.827 148.04 174.982 151.195 174.982 155.05V178.988C174.982 182.843 171.827 185.998 167.972 185.998Z" fill="white"/>
<path d="M238.62 185.998H212.154C208.299 185.998 205.144 182.843 205.144 178.988V155.05C205.144 151.195 208.299 148.04 212.154 148.04H238.62C242.475 148.04 245.63 151.195 245.63 155.05V178.988C245.63 182.843 242.475 185.998 238.62 185.998Z" fill="white"/>
<path d="M309.268 185.998H282.802C278.947 185.998 275.792 182.843 275.792 178.988V155.05C275.792 151.195 278.947 148.04 282.802 148.04H309.268C313.123 148.04 316.278 151.195 316.278 155.05V178.988C316.278 182.843 313.123 185.998 309.268 185.998Z" fill="white"/>
<path d="M379.915 185.998H353.449C349.594 185.998 346.439 182.843 346.439 178.988V155.05C346.439 151.195 349.594 148.04 353.449 148.04H379.915C383.771 148.04 386.926 151.195 386.926 155.05V178.988C386.926 182.843 383.771 185.998 379.915 185.998Z" fill="white"/>
<path d="M167.972 237.045H141.506C137.651 237.045 134.496 233.89 134.496 230.035V206.098C134.496 202.243 137.651 199.088 141.506 199.088H167.972C171.827 199.088 174.982 202.243 174.982 206.098V230.035C174.982 233.89 171.827 237.045 167.972 237.045Z" fill="white"/>
<path d="M238.62 237.045H212.154C208.299 237.045 205.144 233.89 205.144 230.035V206.098C205.144 202.243 208.299 199.088 212.154 199.088H238.62C242.475 199.088 245.63 202.243 245.63 206.098V230.035C245.63 233.89 242.475 237.045 238.62 237.045Z" fill="white"/>
<path d="M309.268 237.045H282.802C278.947 237.045 275.792 233.89 275.792 230.035V206.098C275.792 202.243 278.947 199.088 282.802 199.088H309.268C313.123 199.088 316.278 202.243 316.278 206.098V230.035C316.278 233.89 313.123 237.045 309.268 237.045Z" fill="white"/>
<path d="M379.915 237.045H353.449C349.594 237.045 346.439 233.89 346.439 230.035V206.098C346.439 202.243 349.594 199.088 353.449 199.088H379.915C383.771 199.088 386.926 202.243 386.926 206.098V230.035C386.926 233.89 383.771 237.045 379.915 237.045Z" fill="white"/>
<path d="M180.013 64.303C185.495 64.303 189.939 59.859 189.939 54.3771C189.939 48.8952 185.495 44.4513 180.013 44.4513C174.531 44.4513 170.087 48.8952 170.087 54.3771C170.087 59.859 174.531 64.303 180.013 64.303Z" fill="#5A54FF"/>
<path d="M180.403 58.7551V58.7551C177.393 58.7551 174.929 56.2913 174.929 53.2811V25.474C174.929 22.4637 177.393 20 180.403 20V20C183.413 20 185.877 22.4637 185.877 25.474V53.2811C185.877 56.2913 183.413 58.7551 180.403 58.7551Z" fill="#F44E4E"/>
<path d="M233.955 64.303C239.437 64.303 243.881 59.859 243.881 54.3771C243.881 48.8952 239.437 44.4513 233.955 44.4513C228.473 44.4513 224.03 48.8952 224.03 54.3771C224.03 59.859 228.473 64.303 233.955 64.303Z" fill="#5A54FF"/>
<path d="M234.345 58.7551V58.7551C231.335 58.7551 228.871 56.2913 228.871 53.2811V25.474C228.871 22.4637 231.335 20 234.345 20V20C237.356 20 239.819 22.4637 239.819 25.474V53.2811C239.819 56.2913 237.356 58.7551 234.345 58.7551Z" fill="#F44E4E"/>
<path d="M287.898 64.303C293.38 64.303 297.823 59.859 297.823 54.3771C297.823 48.8952 293.38 44.4513 287.898 44.4513C282.416 44.4513 277.972 48.8952 277.972 54.3771C277.972 59.859 282.416 64.303 287.898 64.303Z" fill="#5A54FF"/>
<path d="M288.288 58.7551V58.7551C285.277 58.7551 282.814 56.2913 282.814 53.2811V25.474C282.814 22.4637 285.277 20 288.288 20V20C291.298 20 293.762 22.4637 293.762 25.474V53.2811C293.762 56.2913 291.298 58.7551 288.288 58.7551Z" fill="#F44E4E"/>
<path d="M341.84 64.303C347.322 64.303 351.766 59.859 351.766 54.3771C351.766 48.8952 347.322 44.4513 341.84 44.4513C336.358 44.4513 331.914 48.8952 331.914 54.3771C331.914 59.859 336.358 64.303 341.84 64.303Z" fill="#5A54FF"/>
<path d="M342.23 58.7551V58.7551C339.219 58.7551 336.756 56.2913 336.756 53.2811V25.474C336.756 22.4637 339.219 20 342.23 20V20C345.24 20 347.704 22.4637 347.704 25.474V53.2811C347.704 56.2913 345.24 58.7551 342.23 58.7551Z" fill="#F44E4E"/>
<path d="M150.298 177.83H150.301L150.298 177.827V177.83Z" fill="#F44E4E"/>
<path d="M169.703 158.424C169.192 157.913 168.356 157.913 167.845 158.424L151.228 175.041L153.086 176.899L169.703 160.282C170.214 159.771 170.214 158.935 169.703 158.424Z" fill="#F44E4E"/>
<path d="M150.298 175.972L151.225 175.041L143.71 167.526C143.199 167.015 142.363 167.015 141.852 167.526C141.341 168.037 141.341 168.873 141.852 169.384L150.298 177.83C149.79 177.319 149.79 176.483 150.298 175.972Z" fill="#F44E4E"/>
<path d="M150.298 175.972C149.787 176.483 149.787 177.319 150.298 177.83V177.83C150.809 178.341 151.645 178.341 152.156 177.83L153.083 176.902L151.225 175.044L150.298 175.972Z" fill="#F44E4E"/>
<path fill-rule="evenodd" clip-rule="evenodd" d="M290.358 227.964C290.669 228.274 291.076 228.428 291.484 228.428C291.892 228.428 292.299 228.274 292.603 227.961L310.151 210.414C310.771 209.793 310.771 208.786 310.151 208.165C309.531 207.545 308.523 207.548 307.903 208.165L291.481 224.587L284.161 217.267C283.564 216.667 282.509 216.667 281.913 217.267C281.614 217.568 281.449 217.964 281.449 218.393C281.449 218.821 281.614 219.22 281.913 219.518L290.358 227.964ZM282.308 217.66C282.503 217.465 282.763 217.359 283.041 217.359C283.319 217.359 283.579 217.468 283.777 217.66L291.487 225.37L308.302 208.558C308.706 208.157 309.365 208.154 309.77 208.558C310.172 208.96 310.172 209.619 309.77 210.024L292.222 227.571C291.818 227.973 291.159 227.976 290.754 227.571L282.308 219.125C282.116 218.93 282.007 218.67 282.007 218.393C282.007 218.115 282.113 217.855 282.308 217.66Z" fill="#F44E4E"/>
<path d="M239.314 106.269C238.803 105.758 237.967 105.758 237.456 106.269L220.839 122.886L222.697 124.744L239.314 108.127C239.822 107.616 239.822 106.78 239.314 106.269Z" fill="#F44E4E"/>
<path d="M219.909 123.817L220.836 122.886L213.321 115.371C212.81 114.86 211.974 114.86 211.463 115.371C210.952 115.882 210.952 116.718 211.463 117.229L219.909 125.675C219.398 125.164 219.398 124.328 219.909 123.817Z" fill="#F44E4E"/>
<path d="M219.909 123.817C219.398 124.328 219.398 125.164 219.909 125.675V125.675C220.42 126.186 221.256 126.186 221.767 125.675L222.694 124.747L220.836 122.889L219.909 123.817Z" fill="#F44E4E"/>
<path d="M239.163 157.553H211.613C210.745 157.553 210.036 156.844 210.036 155.975V155.975C210.036 155.107 210.745 154.398 211.613 154.398H239.163C240.032 154.398 240.741 155.107 240.741 155.975V155.975C240.741 156.844 240.032 157.553 239.163 157.553Z" fill="#E3E5FC"/>
<path d="M239.163 165.216H211.613C210.745 165.216 210.036 164.507 210.036 163.638V163.638C210.036 162.77 210.745 162.061 211.613 162.061H239.163C240.032 162.061 240.741 162.77 240.741 163.638V163.638C240.741 164.507 240.032 165.216 239.163 165.216Z" fill="#E3E5FC"/>
<path d="M239.163 172.879H211.613C210.745 172.879 210.036 172.17 210.036 171.301V171.301C210.036 170.432 210.745 169.724 211.613 169.724H239.163C240.032 169.724 240.741 170.432 240.741 171.301V171.301C240.741 172.17 240.032 172.879 239.163 172.879Z" fill="#E3E5FC"/>
<path d="M239.163 180.542H211.613C210.745 180.542 210.036 179.833 210.036 178.964V178.964C210.036 178.096 210.745 177.387 211.613 177.387H239.163C240.032 177.387 240.741 178.096 240.741 178.964V178.964C240.741 179.833 240.032 180.542 239.163 180.542Z" fill="#E3E5FC"/>
<path d="M168.516 209.004H140.966C140.097 209.004 139.388 208.295 139.388 207.427V207.427C139.388 206.558 140.097 205.849 140.966 205.849H168.516C169.384 205.849 170.093 206.558 170.093 207.427V207.427C170.093 208.295 169.381 209.004 168.516 209.004Z" fill="#E3E5FC"/>
<path d="M168.516 216.667H140.966C140.097 216.667 139.388 215.958 139.388 215.09V215.09C139.388 214.221 140.097 213.512 140.966 213.512H168.516C169.384 213.512 170.093 214.221 170.093 215.09V215.09C170.093 215.958 169.381 216.667 168.516 216.667Z" fill="#E3E5FC"/>
<path d="M168.516 224.33H140.966C140.097 224.33 139.388 223.621 139.388 222.753V222.753C139.388 221.884 140.097 221.175 140.966 221.175H168.516C169.384 221.175 170.093 221.884 170.093 222.753V222.753C170.093 223.621 169.381 224.33 168.516 224.33Z" fill="#E3E5FC"/>
<path d="M168.516 231.996H140.966C140.097 231.996 139.388 231.287 139.388 230.419V230.419C139.388 229.55 140.097 228.841 140.966 228.841H168.516C169.384 228.841 170.093 229.55 170.093 230.419V230.419C170.093 231.284 169.381 231.996 168.516 231.996Z" fill="#E3E5FC"/>
<path d="M380.893 106.053H353.343C352.475 106.053 351.766 105.344 351.766 104.476V104.476C351.766 103.607 352.475 102.898 353.343 102.898H380.893C381.762 102.898 382.471 103.607 382.471 104.476V104.476C382.468 105.344 381.759 106.053 380.893 106.053Z" fill="#E3E5FC"/>
<path d="M380.893 113.716H353.343C352.475 113.716 351.766 113.007 351.766 112.139V112.139C351.766 111.27 352.475 110.561 353.343 110.561H380.893C381.762 110.561 382.471 111.27 382.471 112.139V112.139C382.468 113.007 381.759 113.716 380.893 113.716Z" fill="#E3E5FC"/>
<path d="M380.893 121.379H353.343C352.475 121.379 351.766 120.67 351.766 119.802V119.802C351.766 118.933 352.475 118.224 353.343 118.224H380.893C381.762 118.224 382.471 118.933 382.471 119.802V119.802C382.468 120.67 381.759 121.379 380.893 121.379Z" fill="#E3E5FC"/>
<path d="M380.893 129.042H353.343C352.475 129.042 351.766 128.333 351.766 127.465V127.465C351.766 126.596 352.475 125.887 353.343 125.887H380.893C381.762 125.887 382.471 126.596 382.471 127.465V127.465C382.468 128.333 381.759 129.042 380.893 129.042Z" fill="#E3E5FC"/>
<path d="M309.811 106.053H282.261C281.393 106.053 280.684 105.344 280.684 104.476V104.476C280.684 103.607 281.393 102.898 282.261 102.898H309.811C310.68 102.898 311.389 103.607 311.389 104.476V104.476C311.389 105.344 310.68 106.053 309.811 106.053Z" fill="#E3E5FC"/>
<path d="M309.811 113.716H282.261C281.393 113.716 280.684 113.007 280.684 112.139V112.139C280.684 111.27 281.393 110.561 282.261 110.561H309.811C310.68 110.561 311.389 111.27 311.389 112.139V112.139C311.389 113.007 310.68 113.716 309.811 113.716Z" fill="#E3E5FC"/>
<path d="M309.811 121.379H282.261C281.393 121.379 280.684 120.67 280.684 119.802V119.802C280.684 118.933 281.393 118.224 282.261 118.224H309.811C310.68 118.224 311.389 118.933 311.389 119.802V119.802C311.389 120.67 310.68 121.379 309.811 121.379Z" fill="#E3E5FC"/>
<path d="M309.811 129.042H282.261C281.393 129.042 280.684 128.333 280.684 127.465V127.465C280.684 126.596 281.393 125.887 282.261 125.887H309.811C310.68 125.887 311.389 126.596 311.389 127.465V127.465C311.389 128.333 310.68 129.042 309.811 129.042Z" fill="#E3E5FC"/>
<path d="M309.811 157.225H282.261C281.393 157.225 280.684 156.516 280.684 155.647V155.647C280.684 154.779 281.393 154.07 282.261 154.07H309.811C310.68 154.07 311.389 154.779 311.389 155.647V155.647C311.389 156.516 310.68 157.225 309.811 157.225Z" fill="#E3E5FC"/>
<path d="M309.811 164.888H282.261C281.393 164.888 280.684 164.179 280.684 163.31V163.31C280.684 162.442 281.393 161.733 282.261 161.733H309.811C310.68 161.733 311.389 162.442 311.389 163.31V163.31C311.389 164.179 310.68 164.888 309.811 164.888Z" fill="#E3E5FC"/>
<path d="M309.811 172.551H282.261C281.393 172.551 280.684 171.842 280.684 170.973V170.973C280.684 170.105 281.393 169.396 282.261 169.396H309.811C310.68 169.396 311.389 170.105 311.389 170.973V170.973C311.389 171.842 310.68 172.551 309.811 172.551Z" fill="#E3E5FC"/>
<path d="M309.811 180.214H282.261C281.393 180.214 280.684 179.505 280.684 178.636V178.636C280.684 177.768 281.393 177.059 282.261 177.059H309.811C310.68 177.059 311.389 177.768 311.389 178.636V178.636C311.389 179.505 310.68 180.214 309.811 180.214Z" fill="#E3E5FC"/>
<path d="M380.893 157.101H353.343C352.475 157.101 351.766 156.392 351.766 155.523V155.523C351.766 154.655 352.475 153.946 353.343 153.946H380.893C381.762 153.946 382.471 154.655 382.471 155.523V155.523C382.468 156.392 381.759 157.101 380.893 157.101Z" fill="#E3E5FC"/>
<path d="M380.893 164.764H353.343C352.475 164.764 351.766 164.055 351.766 163.186V163.186C351.766 162.318 352.475 161.609 353.343 161.609H380.893C381.762 161.609 382.471 162.318 382.471 163.186V163.186C382.468 164.055 381.759 164.764 380.893 164.764Z" fill="#E3E5FC"/>
<path d="M380.893 172.427H353.343C352.475 172.427 351.766 171.718 351.766 170.849V170.849C351.766 169.981 352.475 169.272 353.343 169.272H380.893C381.762 169.272 382.471 169.981 382.471 170.849V170.849C382.468 171.718 381.759 172.427 380.893 172.427Z" fill="#E3E5FC"/>
<path d="M380.893 180.09H353.343C352.475 180.09 351.766 179.381 351.766 178.512V178.512C351.766 177.644 352.475 176.935 353.343 176.935H380.893C381.762 176.935 382.471 177.644 382.471 178.512V178.512C382.468 179.381 381.759 180.09 380.893 180.09Z" fill="#E3E5FC"/>
<path d="M380.893 208.148H353.343C352.475 208.148 351.766 207.439 351.766 206.57V206.57C351.766 205.702 352.475 204.993 353.343 204.993H380.893C381.762 204.993 382.471 205.702 382.471 206.57V206.57C382.468 207.439 381.759 208.148 380.893 208.148Z" fill="#E3E5FC"/>
<path d="M380.893 215.811H353.343C352.475 215.811 351.766 215.102 351.766 214.233V214.233C351.766 213.365 352.475 212.656 353.343 212.656H380.893C381.762 212.656 382.471 213.365 382.471 214.233V214.233C382.468 215.102 381.759 215.811 380.893 215.811Z" fill="#E3E5FC"/>
<path d="M380.893 223.474H353.343C352.475 223.474 351.766 222.765 351.766 221.896V221.896C351.766 221.028 352.475 220.319 353.343 220.319H380.893C381.762 220.319 382.471 221.028 382.471 221.896V221.896C382.468 222.765 381.759 223.474 380.893 223.474Z" fill="#E3E5FC"/>
<path d="M380.893 231.137H353.343C352.475 231.137 351.766 230.428 351.766 229.559V229.559C351.766 228.691 352.475 227.982 353.343 227.982H380.893C381.762 227.982 382.471 228.691 382.471 229.559V229.559C382.468 230.428 381.759 231.137 380.893 231.137Z" fill="#E3E5FC"/>
<path d="M239.163 208.148H211.613C210.745 208.148 210.036 207.439 210.036 206.57V206.57C210.036 205.702 210.745 204.993 211.613 204.993H239.163C240.032 204.993 240.741 205.702 240.741 206.57V206.57C240.741 207.439 240.032 208.148 239.163 208.148Z" fill="#E3E5FC"/>
<path d="M239.163 215.811H211.613C210.745 215.811 210.036 215.102 210.036 214.233V214.233C210.036 213.365 210.745 212.656 211.613 212.656H239.163C240.032 212.656 240.741 213.365 240.741 214.233V214.233C240.741 215.102 240.032 215.811 239.163 215.811Z" fill="#E3E5FC"/>
<path d="M239.163 223.474H211.613C210.745 223.474 210.036 222.765 210.036 221.896V221.896C210.036 221.028 210.745 220.319 211.613 220.319H239.163C240.032 220.319 240.741 221.028 240.741 221.896V221.896C240.741 222.765 240.032 223.474 239.163 223.474Z" fill="#E3E5FC"/>
<path d="M239.163 231.137H211.613C210.745 231.137 210.036 230.428 210.036 229.559V229.559C210.036 228.691 210.745 227.982 211.613 227.982H239.163C240.032 227.982 240.741 228.691 240.741 229.559V229.559C240.741 230.428 240.032 231.137 239.163 231.137Z" fill="#E3E5FC"/>
<path d="M168.516 105.197H140.966C140.097 105.197 139.388 104.488 139.388 103.619V103.619C139.388 102.751 140.097 102.042 140.966 102.042H168.516C169.384 102.042 170.093 102.751 170.093 103.619V103.619C170.093 104.488 169.381 105.197 168.516 105.197Z" fill="#E3E5FC"/>
<path d="M168.516 112.86H140.966C140.097 112.86 139.388 112.151 139.388 111.282V111.282C139.388 110.414 140.097 109.705 140.966 109.705H168.516C169.384 109.705 170.093 110.414 170.093 111.282V111.282C170.093 112.151 169.381 112.86 168.516 112.86Z" fill="#E3E5FC"/>
<path d="M168.516 120.523H140.966C140.097 120.523 139.388 119.814 139.388 118.945V118.945C139.388 118.077 140.097 117.368 140.966 117.368H168.516C169.384 117.368 170.093 118.077 170.093 118.945V118.945C170.093 119.814 169.381 120.523 168.516 120.523Z" fill="#E3E5FC"/>
<path d="M168.516 128.186H140.966C140.097 128.186 139.388 127.477 139.388 126.608V126.608C139.388 125.74 140.097 125.031 140.966 125.031H168.516C169.384 125.031 170.093 125.74 170.093 126.608V126.608C170.093 127.477 169.381 128.186 168.516 128.186Z" fill="#E3E5FC"/>
<path d="M352.153 179.15C351.503 178.5 350.439 178.5 349.792 179.15L328.667 200.275L331.028 202.635L352.153 181.51C352.803 180.861 352.803 179.797 352.153 179.15Z" fill="#F44E4E"/>
<path d="M327.489 201.454L328.67 200.272L319.117 190.719C318.467 190.069 317.403 190.069 316.756 190.719C316.106 191.368 316.106 192.432 316.756 193.079L327.492 203.814C326.839 203.164 326.839 202.104 327.489 201.454Z" fill="#F44E4E"/>
<path d="M327.489 201.454C326.839 202.104 326.839 203.167 327.489 203.814V203.814C328.139 204.464 329.202 204.464 329.849 203.814L331.031 202.632L328.67 200.272L327.489 201.454Z" fill="#F44E4E"/>
<path d="M130.886 228.632H82.0576C76.1641 228.632 71.343 223.811 71.343 217.917V217.917C71.343 212.024 76.1641 207.203 82.0576 207.203H130.886C136.78 207.203 141.601 212.024 141.601 217.917V217.917C141.601 223.811 136.78 228.632 130.886 228.632Z" fill="#A7ADFF"/>
<path fill-rule="evenodd" clip-rule="evenodd" d="M76.749 217.917C76.749 222.407 80.4033 226.062 84.8935 226.062C89.3838 226.062 93.038 222.407 93.038 217.917C93.038 213.427 89.3838 209.773 84.8935 209.773C80.4033 209.773 76.749 213.427 76.749 217.917ZM77.8569 217.917C77.8569 214.038 81.0148 210.88 84.8936 210.88C88.7753 210.88 91.9303 214.038 91.9303 217.917C91.9303 221.796 88.7723 224.954 84.8936 224.954C81.0119 224.954 77.8569 221.796 77.8569 217.917Z" fill="white"/>
<rect x="84.1226" y="221.766" width="1.10779" height="2.12106" fill="white"/>
<rect x="84.1226" y="211.973" width="1.10779" height="2.12106" fill="white"/>
<rect x="84.5233" y="217.498" width="5.92273" height="1.10774" transform="rotate(-40.2054 84.5233 217.498)" fill="white"/>
<path d="M93.5432 198.086H44.7146C38.8211 198.086 34 193.265 34 187.371V187.371C34 181.478 38.8211 176.657 44.7146 176.657H93.5432C99.4367 176.657 104.258 181.478 104.258 187.371V187.371C104.258 193.262 99.4367 198.086 93.5432 198.086Z" fill="#E3E5FC"/>
<path d="M58.0849 181.333C57.8249 181.073 57.4025 181.073 57.1455 181.333L48.7351 189.744L49.6745 190.683L58.0849 182.273C58.3449 182.016 58.3449 181.593 58.0849 181.333Z" fill="#A7ADFF"/>
<path d="M48.2655 190.213L48.7352 189.744L44.9303 185.939C44.6703 185.679 44.2479 185.679 43.9909 185.939C43.7309 186.199 43.7309 186.621 43.9909 186.878L48.2655 191.153C48.0085 190.896 48.0085 190.473 48.2655 190.213Z" fill="#A7ADFF"/>
<path d="M48.2654 190.213C48.0054 190.473 48.0054 190.896 48.2654 191.153V191.153C48.5254 191.413 48.9478 191.413 49.2048 191.153L49.6745 190.683L48.7351 189.744L48.2654 190.213Z" fill="#A7ADFF"/>
<path d="M379.797 208.34C379.797 208.34 372.817 220.647 361.567 217.566C350.318 214.484 342.516 198.263 339.157 200.068C335.799 201.873 327.766 199.088 336.744 196.571C340.865 195.416 341.482 195.59 341.955 195.93C348.173 200.393 355.426 207.332 359.225 210.588C363.313 214.092 368.418 211.569 373.088 208.94C377.759 206.313 395.555 200.733 379.797 208.34Z" fill="#EAC2AB"/>
<path d="M387.357 185.298L388.961 197.043C391.797 197.876 394.769 199.469 397.755 199.466C397.619 197.288 395.487 194.795 394.506 192.739C393.318 190.246 396.225 184.592 396.358 181.794C396.704 174.483 387.357 185.298 387.357 185.298Z" fill="#D4A79A"/>
<path d="M384.757 167.579C383.33 167.195 379.251 168.725 378.586 170.046C376.976 173.239 378.196 176.955 377.812 180.707C377.555 183.224 379.351 188.373 381.304 190.411C384.193 193.433 387.832 189.348 390.016 186.825C393.094 183.268 394.435 178.539 394.015 173.853C393.865 172.17 393.407 170.394 392.148 169.266C390.934 168.179 389.224 167.898 387.611 167.662C386.606 167.517 385.735 167.842 384.757 167.579Z" fill="#EAC2AB"/>
<path d="M301.844 273.271L293.386 282.931L296.326 286.089L304.55 275.487C304.553 275.487 303.197 273.531 301.844 273.271Z" fill="#EAC2AB"/>
<path d="M274.616 277.277C274.616 277.277 277.1 279.995 282.719 283.64C288.338 287.286 294.754 291.085 296.42 290.869C298.086 290.65 302.899 283.682 300.949 282.609C298.996 281.54 296.689 283.947 294.627 279.54C292.861 275.765 288.273 278.544 282.542 276.816C276.811 275.088 274.492 274.385 274.616 277.277Z" fill="#FDC510"/>
<path d="M330.523 242.445C329.63 242.439 328.709 242.448 327.89 242.8C326.981 243.189 326.298 243.955 325.642 244.696C320.954 249.987 316.107 255.136 311.108 260.134C306.252 264.988 301.156 269.768 295.02 272.855C295.528 273.841 296.639 274.326 297.646 274.793C301.791 276.713 305.498 279.566 308.414 283.082C308.686 280.367 309.95 277.764 311.912 275.871C313.312 274.518 315.025 273.543 316.659 272.488C324.024 267.741 330.077 261.216 337.211 256.131C337.53 255.904 337.861 255.674 338.239 255.567C338.735 255.425 339.264 255.508 339.775 255.591C350.956 257.381 362.271 258.347 373.594 258.483C376.211 258.515 379.478 258.063 380.305 255.579C383.649 245.541 348.9 243.381 344.416 243.027C340.005 242.678 334.924 241.866 330.523 242.445Z" fill="#4B369D"/>
<path d="M387.33 194.964C382.74 196.701 377.596 202.609 375.951 205.043C370.935 212.467 374.022 219.332 366.648 230.121C365.939 231.16 366.179 232.673 366.64 233.843C367.319 235.565 369.21 236.419 370.899 237.175C377.534 240.147 383.691 244.182 389.061 249.086C392.083 234.507 393.998 219.698 394.783 204.83C394.911 202.44 394.99 199.947 394.012 197.737C392.518 194.358 390.018 193.944 387.33 194.964Z" fill="#F44E4E"/>
<path d="M395.962 201.723C398.414 207.643 396.559 214.582 397.616 220.972C398.674 227.361 398.411 233.612 399.9 239.931C400.866 244.034 401.675 248.167 402.287 252.327C402.331 252.637 402.387 252.968 402.615 253.201C402.869 253.461 403.277 253.535 403.655 253.597C407.182 254.167 413.329 254.031 415.465 257C411.882 258.43 407.318 257.925 403.693 256.702C404.34 257.36 404.987 258.016 405.634 258.675C404.172 259.384 402.346 258.743 401.203 257.591C400.06 256.436 399.448 254.876 398.866 253.358C395.637 244.95 392.151 236.661 390.801 227.692C390.039 222.62 390.06 217.453 388.958 212.431C388.618 210.877 388.169 209.327 388.187 207.743C388.219 205.2 389.537 202.692 391.693 201.073C392.122 200.751 392.597 200.455 393.141 200.346C394.134 200.142 395.173 200.606 395.856 201.291C396.538 201.977 396.928 202.857 397.289 203.72" fill="#EAC2AB"/>
<path d="M333.858 265.292L332.508 278.06L336.729 278.949L337.347 265.543C337.347 265.546 335.11 264.728 333.858 265.292Z" fill="#EAC2AB"/>
<path d="M316.381 284.831C316.381 284.831 319.545 285.531 325.433 285.312C331.32 285.094 337.864 284.586 338.951 283.584C340.038 282.586 339.979 275.132 338.032 275.348C336.085 275.564 335.642 278.468 331.929 276.335C328.747 274.509 326.851 278.831 321.852 280.485C316.854 282.146 314.827 282.81 316.381 284.831Z" fill="#FDC510"/>
<path d="M387.832 236.558C389.487 237.222 391.182 238.135 392.007 239.718C392.479 240.628 392.615 241.674 392.689 242.699C392.984 246.69 392.334 251.077 389.46 253.863C388.054 255.228 386.24 256.084 384.417 256.805C380.101 258.51 375.345 259.579 370.82 258.548C365.845 257.414 361.765 253.892 358.353 250.096C355.455 246.87 352.873 243.355 350.661 239.624C349.423 237.538 348.091 235.205 345.784 234.46C343.97 239.958 345.293 245.963 344.667 251.718C344.312 254.985 343.326 258.158 343.001 261.428C342.676 264.699 343.107 268.246 345.228 270.757C343.447 272.447 340.599 271.768 338.188 271.319C335.181 270.76 332.076 270.752 329.066 271.286C328.301 271.422 327.424 271.567 326.824 271.073C326.331 270.669 326.21 269.96 326.236 269.319C326.334 267.165 327.698 265.301 328.396 263.26C329.217 260.849 329.087 258.241 329.214 255.697C329.63 247.219 332.957 239.066 333.217 230.581C333.291 228.15 333.113 225.689 333.615 223.311C334.118 220.933 335.45 218.561 337.674 217.58C340.28 216.434 343.784 216.603 345.934 218.464C347.258 219.61 361.077 228.487 372.982 234.156C377.753 236.431 382.934 234.587 387.832 236.558Z" fill="#5A54FF"/>
<path d="M415.675 220.688C415.161 220.656 414.68 220.552 414.346 220.189C413.767 219.557 413.962 218.573 413.855 217.722C413.622 215.855 412.098 214.499 411.988 212.582C411.861 210.349 413.208 208.31 412.502 206.036C411.79 203.743 409.855 201.531 408.293 199.773C407.008 198.325 405.203 197.182 404.364 195.383C403.575 193.69 404.195 191.797 404.461 190.06C404.751 188.154 403.894 187.165 403.726 185.354C403.61 184.125 404.275 182.976 404.166 181.756C404.334 181.014 404.491 180.246 404.606 179.502C405.102 176.35 401.98 174.636 400.426 172.492C398.801 170.246 400.39 166.359 398.512 163.706C396.007 160.17 390.716 159.68 386.796 160.457C383.909 161.03 382.681 162.829 380.592 164.613C379.703 165.372 378.433 165.523 377.428 166.075C375.951 166.885 374.976 168.117 374.279 169.706C374.102 170.108 374.007 170.557 374.022 170.991C374.037 171.407 374.149 171.812 374.394 172.149C375.118 173.156 376.63 173.183 377.809 172.79C382.562 171.207 389.044 171.481 389.186 178.101C389.248 180.929 388.001 183.617 387.643 186.4C387.245 189.496 391.191 190.837 392.405 193.141C393.587 195.38 394.394 198.305 394.361 200.866C394.361 200.866 392.364 204.307 392.559 208.041C392.713 210.999 394.574 210.99 396.151 212.062C397.12 212.721 396.577 215.518 396.819 216.502C397.286 218.399 398.848 219.654 399.466 221.468C400.131 223.427 400.054 224.697 401.965 226.011C405.997 228.788 411.424 228.115 415.335 225.441C416.242 224.821 418.399 223.326 418.272 221.979C418.127 220.487 416.824 220.765 415.675 220.688Z" fill="#4B369D"/>
</svg>
