<svg width="475" height="320" viewBox="0 0 475 320" fill="none" xmlns="http://www.w3.org/2000/svg">
<rect width="475" height="320" fill="#F7FBFD"/>
<path d="M338.636 237.553H258.836C251.904 237.553 246.233 231.882 246.233 224.949V37.6034C246.233 30.671 251.904 25 258.836 25H338.636C345.569 25 351.24 30.671 351.24 37.6034V224.949C351.24 231.879 345.569 237.553 338.636 237.553Z" fill="#A7ADFF"/>
<path d="M331.973 217.723H265.5C258.567 217.723 252.896 212.052 252.896 205.119V44.7461C252.896 37.8137 258.567 32.1427 265.5 32.1427H331.973C338.905 32.1427 344.576 37.8137 344.576 44.7461V205.119C344.576 212.049 338.905 217.723 331.973 217.723Z" fill="#E3E5FC"/>
<path d="M308.628 29.858H288.845C288.363 29.858 287.97 29.4627 287.97 28.9834V28.9834C287.97 28.5012 288.366 28.1088 288.845 28.1088H308.628C309.11 28.1088 309.502 28.504 309.502 28.9834V28.9834C309.502 29.4655 309.107 29.858 308.628 29.858Z" fill="#E3E5FC"/>
<path d="M298.735 232.429C301.743 232.429 304.182 229.99 304.182 226.982C304.182 223.974 301.743 221.535 298.735 221.535C295.727 221.535 293.288 223.974 293.288 226.982C293.288 229.99 295.727 232.429 298.735 232.429Z" fill="#E3E5FC"/>
<path d="M323.734 195.577H273.736C269.281 195.577 265.637 191.933 265.637 187.479V184.333C265.637 179.879 269.281 176.235 273.736 176.235H323.734C328.189 176.235 331.833 179.879 331.833 184.333V187.479C331.836 191.933 328.189 195.577 323.734 195.577Z" fill="#F44E4E"/>
<path d="M299.29 83.2541C295.088 82.2029 294.037 69.5995 289.837 69.5995C280.609 70.4377 277.408 82.6654 272.213 91.8376C272.892 95.6164 276.211 98.5121 280.177 98.5121H317.158C321.612 98.5121 325.256 94.8679 325.256 90.4135V63.8977C323.972 63.9986 322.661 64.4612 321.346 65.4002C313.996 71.6991 308.745 85.3537 299.29 83.2541Z" fill="#A7ADFF"/>
<path d="M317.225 52.9875H280.245C275.79 52.9875 272.146 56.6318 272.146 61.0861V90.4108C272.146 90.8986 272.197 91.3723 272.281 91.8376C277.475 82.6654 280.676 70.4377 289.905 69.5995C294.107 69.5995 295.158 82.2029 299.357 83.2541C308.81 85.3537 314.063 71.6992 321.416 65.3975C322.728 64.4584 324.043 63.9987 325.326 63.895V61.0861C325.326 56.6318 321.679 52.9875 317.225 52.9875Z" fill="white"/>
<path d="M322.719 115.604H274.753C273.466 115.604 272.412 114.55 272.412 113.263V113.263C272.412 111.976 273.466 110.922 274.753 110.922H322.719C324.006 110.922 325.06 111.976 325.06 113.263V113.263C325.06 114.55 324.006 115.604 322.719 115.604Z" fill="#A7ADFF"/>
<path d="M322.719 126.32H274.753C273.466 126.32 272.412 125.266 272.412 123.98V123.98C272.412 122.693 273.466 121.639 274.753 121.639H322.719C324.006 121.639 325.06 122.693 325.06 123.98V123.98C325.06 125.266 324.006 126.32 322.719 126.32Z" fill="white"/>
<path d="M322.719 137.034H274.753C273.466 137.034 272.412 135.98 272.412 134.693V134.693C272.412 133.407 273.466 132.353 274.753 132.353H322.719C324.006 132.353 325.06 133.407 325.06 134.693V134.693C325.06 135.983 324.006 137.034 322.719 137.034Z" fill="white"/>
<path d="M303.988 71.831C306.563 71.831 308.65 69.7439 308.65 67.1692C308.65 64.5946 306.563 62.5074 303.988 62.5074C301.414 62.5074 299.326 64.5946 299.326 67.1692C299.326 69.7439 301.414 71.831 303.988 71.831Z" fill="#A7ADFF"/>
<path d="M298.334 167.119V167.119C298.034 166.875 297.989 166.432 298.233 166.135L304.65 158.255C304.894 157.955 305.337 157.91 305.634 158.154V158.154C305.934 158.398 305.978 158.841 305.735 159.138L299.318 167.018C299.074 167.318 298.631 167.362 298.334 167.119Z" fill="white"/>
<path d="M299.139 167.119V167.119C299.439 166.875 299.483 166.432 299.239 166.135L292.823 158.255C292.579 157.955 292.136 157.91 291.839 158.154V158.154C291.539 158.398 291.494 158.841 291.738 159.138L298.155 167.018C298.396 167.318 298.839 167.363 299.139 167.119Z" fill="white"/>
<path d="M298.735 289.788C325.532 289.788 347.256 286.584 347.256 282.632C347.256 278.679 325.532 275.475 298.735 275.475C271.937 275.475 250.214 278.679 250.214 282.632C250.214 286.584 271.937 289.788 298.735 289.788Z" fill="#E3E5FC"/>
<path d="M162.593 112.296H109.298C104.734 112.296 101 108.562 101 103.998V103.998C101 99.4344 104.734 95.7004 109.298 95.7004H162.596C167.159 95.7004 170.893 99.4344 170.893 103.998V103.998C170.89 108.562 167.156 112.296 162.593 112.296Z" fill="#E3E5FC"/>
<path d="M162.806 104.542V104.542C162.66 104.721 162.391 104.749 162.212 104.604L157.466 100.738C157.286 100.592 157.258 100.323 157.404 100.144V100.144C157.55 99.9642 157.819 99.9362 157.998 100.082L162.744 103.948C162.924 104.093 162.952 104.362 162.806 104.542Z" fill="white"/>
<path d="M162.806 104.057V104.057C162.66 103.878 162.391 103.85 162.212 103.995L157.466 107.861C157.286 108.007 157.258 108.276 157.404 108.455V108.455C157.55 108.635 157.819 108.663 157.998 108.517L162.744 104.651C162.924 104.503 162.952 104.236 162.806 104.057Z" fill="white"/>
<path d="M142.188 130.761H106.548C103.495 130.761 101 128.263 101 125.213V125.213C101 122.16 103.498 119.665 106.548 119.665H142.188C145.241 119.665 147.736 122.163 147.736 125.213V125.213C147.738 128.263 145.241 130.761 142.188 130.761Z" fill="#A7ADFF"/>
<path d="M142.331 125.575V125.575C142.233 125.695 142.053 125.712 141.933 125.614L138.76 123.029C138.639 122.931 138.622 122.752 138.72 122.631V122.631C138.819 122.511 138.998 122.494 139.118 122.592L142.292 125.177C142.409 125.275 142.429 125.454 142.331 125.575Z" fill="white"/>
<path d="M142.331 125.249V125.249C142.233 125.129 142.053 125.112 141.933 125.21L138.76 127.795C138.639 127.893 138.622 128.072 138.72 128.193V128.193C138.819 128.313 138.998 128.33 139.118 128.232L142.292 125.647C142.409 125.549 142.429 125.37 142.331 125.249Z" fill="white"/>
<path d="M189.972 127.907C189.972 127.907 183.592 136.339 183.208 142.464C182.824 148.589 199.004 151.034 199.004 151.034L189.972 127.907Z" fill="#D4A79A"/>
<path d="M208.008 104.447L207.324 117.179L197.359 121.022C197.359 121.022 203.352 112.254 202.334 104.447C201.322 96.6396 208.008 104.447 208.008 104.447Z" fill="#D4A79A"/>
<path d="M216.914 78.3961C216.914 78.3961 219.084 81.2722 216.967 90.0884C214.851 98.9074 211.414 106.437 208.757 105.904C201.409 104.435 198.83 99.2438 196.282 94.7866C193.159 89.3203 199.36 75.9881 199.36 75.9881L205.219 72.826L216.914 78.3961Z" fill="#EAC2AB"/>
<path d="M224.738 76.0189C225.38 73.9501 224.253 71.3039 222.747 70.0256C222.167 69.5322 221.436 69.2183 220.704 69.2911C220.154 69.3444 219.616 69.6107 219.07 69.521C217.433 69.2491 217.236 66.8355 215.717 66.3449C214.584 65.9805 213.497 67.0065 212.342 67.2784C211.47 67.483 210.567 67.2476 209.69 67.0654C207.22 66.5468 204.93 65.361 202.399 65.0554C200.263 64.7975 198.034 65.0386 196.103 66.0758C194.084 67.1579 192.638 69.1482 191.867 71.4468C191.407 72.8204 191.259 74.351 191.629 75.7582C191.326 74.6005 189.243 75.8451 188.904 76.2992C187.578 78.0877 187.354 81.9646 188.057 84.0446C188.615 85.6929 189.532 87.1506 190.042 88.8213C190.648 90.8144 190.9 93.0262 192.004 94.7922C193.269 96.8189 195.78 97.8505 197.942 97.2899C197.274 95.4566 196.613 93.5812 196.49 91.6133C196.366 89.6455 193.762 80.7508 203.456 78.8306C207.31 78.0681 211.952 81.2806 215.812 81.4348C217.646 81.5077 219.482 81.1516 221.2 80.4536C222.529 79.9154 223.821 77.9335 224.553 76.4842C224.628 76.3357 224.69 76.1815 224.738 76.0189Z" fill="#4B369D"/>
<path d="M196.504 85.1996C196.504 85.1996 193.796 82.1413 194.093 86.8087C194.39 91.476 196.834 92.4404 196.834 92.4404L196.504 85.1996Z" fill="#EAC2AB"/>
<path d="M173.405 264.027L167.535 279.439L162.181 278.006L169.262 262.289C169.259 262.289 172.295 262.65 173.405 264.027Z" fill="#D4A79A"/>
<path d="M181.251 293.811C181.061 294.131 179.166 294.002 178.882 294.004C175.959 294.046 171.465 294.259 168.951 292.569C166.5 290.921 164.925 288.09 162.761 286.105C161.239 284.709 159.296 283.862 157.496 282.873C155.509 281.779 159.551 272.714 161.962 274.18C163.913 275.368 162.954 278.654 167.93 278.228C172.194 277.861 169.486 283.949 174.445 287.577C178.829 290.783 183.342 290.307 181.251 293.811Z" fill="#F3AA02"/>
<path d="M184.237 208.999C181.854 221.964 176.881 233.763 169.497 244.645C165.895 249.951 162.041 255.067 158.309 260.284C152.989 267.724 171.022 269.465 175.462 270.808C178.367 271.685 182.686 271.909 182.493 269.669C182.437 269.011 181.93 268.363 181.512 267.73C177.708 261.918 181.032 256.065 183.665 250.857C191.55 235.24 196.874 217.235 203.06 200.962C205.415 194.767 204.355 188.664 204.697 181.869C204.908 177.709 197.695 159.384 189.815 163.9C184.912 166.712 187.628 177.398 188.153 181.693C188.517 184.661 189.156 187.899 188.668 190.89C187.671 197.018 185.363 202.874 184.237 208.999Z" fill="#4B369D"/>
<path d="M203.442 269.213L207.089 285.805L201.667 287.593L198.889 270.054C198.892 270.056 201.712 268.655 203.442 269.213Z" fill="#EAC2AB"/>
<path d="M229.293 292.345C229.293 292.345 225.237 293.73 217.461 294.307C209.684 294.885 201.006 295.173 199.43 294.018C197.852 292.864 196.837 283.055 199.43 283.055C202.023 283.055 203.029 286.806 207.602 283.459C211.518 280.591 214.646 285.998 221.464 287.439C228.278 288.883 231.039 289.46 229.293 292.345Z" fill="#FDC510"/>
<path d="M217.561 273.86C217.301 273.252 216.617 272.798 216.023 272.324C210.593 267.996 211.919 261.394 212.788 255.625C214.848 241.94 212.642 228.145 211.818 214.457C211.016 201.097 212.353 187.689 215.406 174.665C216.516 169.933 218.046 162.617 210.727 164.002C207.26 164.657 203.837 164.529 200.38 163.923C198.561 163.603 200.417 163.012 198.561 163.603C192.24 165.622 189.877 177.569 191.175 181.732C193.759 190.021 194.6 197.977 195.021 206.754C195.615 219.2 197.687 231.66 196.209 244.012C195.486 250.064 194.645 256.099 193.838 262.14C193.367 265.664 190.421 273.384 192.397 276.574C195.11 280.953 207.201 277.241 211.24 277.143C214.273 277.065 218.445 275.926 217.561 273.86Z" fill="#5A54FF"/>
<path d="M212.179 140.869C210.346 133.429 212.336 120.916 207.091 115.396C206.553 114.83 205.984 114.272 205.272 113.95C198.682 110.981 194.707 116.391 191.873 121.081C189.036 125.776 189.1 130.856 187.715 136.12C186.14 142.105 186.457 148.329 186.345 154.507C186.275 158.269 186.734 162.006 186.521 165.773C186.373 168.403 186 171.015 185.4 173.577C185.002 175.282 182.773 178.665 183.424 180.4C183.939 181.774 186.3 181.255 187.46 181.295C191.948 181.443 196.347 180.112 200.338 178.138C203.985 176.336 207.181 173.541 211.386 173.193C213.474 173.019 220.051 173.877 219.106 170.079C216.866 161.083 214.313 153.414 213.385 147.061C213.085 145.007 212.687 142.932 212.179 140.869Z" fill="#D7384E"/>
<path d="M221.34 147.095C221.34 147.095 229.035 155.608 230.288 154.4C231.541 153.192 254.553 128.605 255.705 125.928C256.857 123.251 259.613 115.508 259.324 113.947C259.035 112.385 258.304 112.554 261.354 112.001C264.404 111.449 270.201 111.317 269.73 112.5C269.259 113.683 266.848 113.784 266.848 113.784C266.848 113.784 269.971 114.549 268.791 115.183C267.611 115.816 263.683 116.346 264.064 117.482C264.446 118.617 265.015 121.218 264.807 123.419C264.6 125.619 263.75 126.615 261.2 128.184C258.649 129.751 258.2 128.661 256.714 131.764C255.229 134.867 232.654 161.829 231.213 162.945C229.772 164.06 229.397 165.291 226.195 162.342C222.994 159.393 217.357 152.093 212.846 147.373C208.709 143.044 207.007 136.95 207.007 136.95L213.701 135.963C213.701 135.963 214.486 140.606 221.34 147.095Z" fill="#EAC2AB"/>
<path d="M216.393 136.148C216.393 136.148 211.083 118.956 204.229 122.239C197.375 125.521 207.01 143.883 207.01 143.883L218.15 138.346L216.393 136.148Z" fill="#F44E4E"/>
</svg>
