<svg width="475" height="320" viewBox="0 0 475 320" fill="none" xmlns="http://www.w3.org/2000/svg">
<rect width="475" height="320" fill="#F7FBFD"/>
<path d="M195.669 114.09L186.47 141.34L162.486 143.653C162.486 143.653 180.817 128.233 183.341 110.654C185.865 93.0743 195.669 114.09 195.669 114.09Z" fill="#D4A79A"/>
<path d="M230.801 62.8797C230.801 62.8797 233.776 70.4442 223.835 88.321C213.893 106.198 201.863 120.478 196.408 117.713C181.329 110.072 178.875 97.2259 176.041 85.9978C172.564 72.2292 194.118 47.0185 194.118 47.0185L208.766 43.6992L230.801 62.8797Z" fill="#EAC2AB"/>
<path d="M250.476 62.8128C252.147 58.26 251.88 53.149 248.554 48.2285C247.591 46.8046 246.191 45.6814 244.559 45.3939C243.333 45.1767 241.999 45.4307 240.869 44.8992C237.476 43.3148 238.512 37.9497 235.507 35.9642C233.264 34.4834 230.283 36.0544 227.605 35.9441C225.583 35.8605 223.768 34.8043 221.973 33.8716C216.919 31.2476 212.663 27.2832 207.345 25.0837C202.856 23.2285 197.872 22.3995 193.045 23.4825C188.008 24.6123 183.659 28.0587 180.587 32.5847C178.752 35.2923 177.505 38.528 177.455 41.8106C177.495 39.113 172.22 40.5504 171.207 41.3392C167.246 44.4212 164.408 52.7145 164.676 57.6583C164.886 61.5726 165.999 65.2997 166.093 69.2374C166.297 77.8516 165.371 92.1918 178.127 92.4258C177.789 88.0402 177.485 83.571 178.411 79.2188C180.065 71.467 183.512 61.2216 190.672 56.816C205.791 47.5199 210.878 71.701 222.314 76.2772C232.96 80.5458 246.689 73.1217 250.476 62.8128Z" fill="#4B369D"/>
<path d="M182.328 65.2997C182.328 65.2997 178.3 57.0165 176.114 67.3354C173.931 77.6577 178.658 81.231 178.658 81.231L182.328 65.2997Z" fill="#EAC2AB"/>
<path d="M207.846 211.249C206.753 197.109 204.798 182.154 201.525 168.001C198.995 157.06 196.618 142.078 185.855 135.844C165.695 124.165 152.722 152.999 149.162 168.175C145.104 185.463 145.619 203.678 145.432 221.324C145.264 237.148 143.038 254.587 145.191 270.141C145.572 272.885 146.575 275.7 148.724 277.448C154.189 281.894 159.825 276 164.425 273.38C168.727 270.926 173.283 271.331 177.852 269.683C181.867 268.235 183.843 265.234 187.202 262.9C196.013 256.776 205.5 266.627 215.05 264.782C235.808 260.771 219.96 266.43 211.607 224.727C210.755 220.478 208.234 216.283 207.846 211.249Z" fill="#F44E4E"/>
<path d="M261.811 180.081C269.697 174.997 272.752 163.585 280.046 157.468C283.017 154.978 286.54 153.5 290.034 152.133C295.021 150.178 300.058 148.376 305.133 146.731C304.815 149.325 302.816 151.247 300.74 152.394C298.664 153.54 296.368 154.192 294.436 155.63C293.583 156.261 292.801 157.07 292.36 158.11C291.367 160.446 292.33 163.254 291.912 165.805C291.127 170.588 286.22 172.54 282.459 174.88C274.694 179.71 269.676 189.227 261.584 193.305C261.584 193.305 200.854 243.73 193.366 242.336C185.878 240.942 175.546 172.166 175.546 172.166C175.546 172.166 168.419 136.72 187.142 153.701C205.864 170.682 194.339 227.09 203.591 221.267C212.837 215.441 261.811 180.081 261.811 180.081Z" fill="#EAC2AB"/>
<path d="M200.623 181.78C200.623 181.78 198.474 138.09 180.353 141.697C162.232 145.304 173.868 194.345 173.868 194.345L203.437 188.014L200.623 181.78Z" fill="#D7384E"/>
<path d="M241.487 288.669H119.185C113.743 288.669 109.29 284.217 109.29 278.775V264.826C109.29 259.384 113.743 254.931 119.185 254.931H241.487C246.929 254.931 251.382 259.384 251.382 264.826V278.775C251.379 284.217 246.926 288.669 241.487 288.669Z" fill="#E3E5FC"/>
<path d="M177.401 297.096H95.6152C91.975 297.096 89 294.118 89 290.481V281.155C89 277.515 91.9783 274.54 95.6152 274.54H177.401C181.041 274.54 184.016 277.518 184.016 281.155V290.481C184.016 294.121 181.038 297.096 177.401 297.096Z" fill="#F44E4E"/>
<path d="M173.176 286.373L172.875 286.741C172.758 286.884 172.544 286.904 172.4 286.787L165.578 281.232C165.434 281.115 165.414 280.901 165.531 280.757L165.832 280.389C165.949 280.246 166.163 280.226 166.307 280.343L173.129 285.898C173.27 286.015 173.293 286.229 173.176 286.373Z" fill="white"/>
<path d="M173.176 286.082L172.875 285.714C172.758 285.571 172.544 285.551 172.4 285.668L165.578 291.223C165.434 291.34 165.414 291.554 165.531 291.698L165.832 292.065C165.949 292.209 166.163 292.229 166.307 292.112L173.129 286.557C173.269 286.436 173.293 286.222 173.176 286.082Z" fill="white"/>
<path d="M163.649 286.373L163.348 286.741C163.231 286.884 163.017 286.904 162.874 286.787L156.051 281.232C155.908 281.115 155.888 280.901 156.005 280.757L156.305 280.389C156.422 280.246 156.636 280.226 156.78 280.343L163.602 285.898C163.746 286.015 163.766 286.229 163.649 286.373Z" fill="white"/>
<path d="M163.649 286.082L163.348 285.714C163.231 285.571 163.017 285.551 162.874 285.668L156.051 291.223C155.908 291.34 155.888 291.554 156.005 291.698L156.305 292.065C156.422 292.209 156.636 292.229 156.78 292.112L163.602 286.557C163.746 286.436 163.766 286.222 163.649 286.082Z" fill="white"/>
<path d="M153.253 286.373L152.953 286.741C152.836 286.884 152.622 286.904 152.478 286.787L145.655 281.232C145.512 281.115 145.492 280.901 145.609 280.757L145.91 280.389C146.027 280.246 146.24 280.226 146.384 280.343L153.207 285.898C153.35 286.015 153.37 286.229 153.253 286.373Z" fill="white"/>
<path d="M153.253 286.082L152.953 285.714C152.836 285.571 152.622 285.551 152.478 285.668L145.655 291.223C145.512 291.34 145.492 291.554 145.609 291.698L145.91 292.065C146.027 292.209 146.24 292.229 146.384 292.112L153.207 286.557C153.35 286.436 153.37 286.222 153.253 286.082Z" fill="white"/>
<path opacity="0.26" d="M370.867 192.513L247.06 235.437C239.204 235.437 232.837 229.069 232.837 221.214V160.082C232.837 152.227 239.204 145.859 247.06 145.859L370.867 102.935C378.722 102.935 385.09 109.303 385.09 117.159V178.29C385.09 186.145 378.722 192.513 370.867 192.513Z" fill="#A7ADFF"/>
<path opacity="0.13" d="M363.225 188.906L239.418 231.83C231.563 231.83 225.195 225.462 225.195 217.607V156.479C225.195 148.623 231.563 142.255 239.418 142.255L363.225 99.3318C371.081 99.3318 377.449 105.7 377.449 113.555V174.683C377.449 182.538 371.081 188.906 363.225 188.906Z" fill="#A7ADFF"/>
<path opacity="0.39" d="M288.727 170.632L250.526 183.875C248.103 183.875 246.137 181.91 246.137 179.486V160.624C246.137 158.2 248.103 156.235 250.526 156.235L288.727 142.991C291.15 142.991 293.115 144.956 293.115 147.38V166.243C293.115 168.666 291.15 170.632 288.727 170.632Z" fill="white"/>
<path d="M375.326 82.4813L337.126 95.7251C334.702 95.7251 332.737 93.7596 332.737 91.3361V72.4732C332.737 70.0498 334.702 68.0842 337.126 68.0842L375.326 54.8405C377.749 54.8405 379.715 56.806 379.715 59.2294V78.0923C379.715 80.5158 377.749 82.4813 375.326 82.4813Z" fill="#A7ADFF"/>
<path d="M360.845 77.4772L324.677 90.0157C322.381 90.0157 320.522 88.1538 320.522 85.8607V68.004C320.522 65.7076 322.384 63.849 324.677 63.849L360.845 51.3105C363.142 51.3105 365 53.1724 365 55.4655V73.3222C365 75.6187 363.138 77.4772 360.845 77.4772Z" fill="#E3E5FC"/>
<path d="M373.294 223.039L337.126 235.577C334.829 235.577 332.971 233.715 332.971 231.422V213.565C332.971 211.269 334.832 209.41 337.126 209.41L373.294 196.872C375.59 196.872 377.449 198.734 377.449 201.027V218.884C377.449 221.18 375.59 223.039 373.294 223.039Z" fill="#E3E5FC"/>
<path d="M313.275 229.122L275.075 242.366C272.651 242.366 270.686 240.401 270.686 237.977V219.118C270.686 216.694 272.651 214.729 275.075 214.729L313.275 201.485C315.699 201.485 317.664 203.45 317.664 205.874V224.737C317.664 227.157 315.699 229.122 313.275 229.122Z" fill="#A7ADFF"/>
<path opacity="0.51" d="M288.727 205.102L250.526 218.345C248.103 218.345 246.137 216.38 246.137 213.956V195.094C246.137 192.67 248.103 190.705 250.526 190.705L288.727 177.461C291.15 177.461 293.115 179.426 293.115 181.85V200.713C293.115 203.136 291.15 205.102 288.727 205.102Z" fill="white"/>
<path opacity="0.51" d="M307.075 193.399V193.399C306.142 193.399 305.377 192.633 305.377 191.701V163.228C305.377 162.295 306.142 161.53 307.075 161.53V161.53C308.007 161.53 308.773 162.295 308.773 163.228V191.701C308.773 192.633 308.011 193.399 307.075 193.399Z" fill="white"/>
<path opacity="0.51" d="M316.21 137.709V137.709C315.896 136.83 316.361 135.854 317.24 135.54L362.42 119.418C363.299 119.104 364.275 119.569 364.589 120.448V120.448C364.903 121.327 364.439 122.303 363.56 122.617L318.38 138.739C317.501 139.053 316.524 138.589 316.21 137.709Z" fill="white"/>
<path opacity="0.51" d="M316.21 143.867V143.867C315.896 142.987 316.361 142.011 317.24 141.697L362.42 125.575C363.299 125.261 364.275 125.726 364.589 126.605V126.605C364.903 127.484 364.439 128.46 363.56 128.774L318.38 144.896C317.501 145.207 316.524 144.746 316.21 143.867Z" fill="white"/>
<path opacity="0.51" d="M316.21 150.021V150.021C315.896 149.141 316.361 148.165 317.24 147.851L362.42 131.729C363.299 131.415 364.275 131.88 364.589 132.759V132.759C364.903 133.638 364.439 134.614 363.56 134.928L318.38 151.05C317.501 151.364 316.524 150.9 316.21 150.021Z" fill="white"/>
<path opacity="0.51" d="M316.21 156.178V156.178C315.896 155.299 316.361 154.323 317.24 154.008L362.42 137.887C363.299 137.572 364.275 138.037 364.589 138.916V138.916C364.903 139.795 364.439 140.771 363.56 141.085L318.38 157.207C317.501 157.518 316.524 157.057 316.21 156.178Z" fill="white"/>
<path opacity="0.51" d="M316.21 162.332V162.332C315.896 161.453 316.361 160.477 317.24 160.162L362.42 144.04C363.299 143.726 364.275 144.191 364.589 145.07V145.07C364.903 145.949 364.439 146.925 363.56 147.239L318.38 163.361C317.501 163.675 316.524 163.211 316.21 162.332Z" fill="white"/>
<path opacity="0.51" d="M316.21 168.486V168.486C315.896 167.607 316.361 166.63 317.24 166.316L362.42 150.194C363.299 149.88 364.275 150.345 364.589 151.224V151.224C364.903 152.103 364.439 153.079 363.56 153.393L318.38 169.515C317.501 169.829 316.524 169.365 316.21 168.486Z" fill="white"/>
<path opacity="0.51" d="M316.21 174.643V174.643C315.896 173.764 316.361 172.788 317.24 172.473L362.42 156.352C363.299 156.037 364.275 156.502 364.589 157.381V157.381C364.903 158.26 364.439 159.236 363.56 159.551L318.38 175.672C317.501 175.983 316.524 175.522 316.21 174.643Z" fill="white"/>
<path opacity="0.51" d="M316.21 180.797V180.797C315.896 179.918 316.361 178.942 317.24 178.627L362.42 162.506C363.299 162.191 364.275 162.656 364.589 163.535V163.535C364.903 164.414 364.439 165.39 363.56 165.704L318.38 181.826C317.501 182.141 316.524 181.676 316.21 180.797Z" fill="white"/>
<path opacity="0.51" d="M316.21 186.954V186.954C315.896 186.075 316.361 185.099 317.24 184.785L362.42 168.663C363.299 168.349 364.275 168.813 364.589 169.692V169.692C364.903 170.571 364.439 171.548 363.56 171.862L318.38 187.984C317.501 188.294 316.524 187.833 316.21 186.954Z" fill="white"/>
<path opacity="0.51" d="M316.21 193.108V193.108C315.896 192.229 316.361 191.253 317.24 190.939L362.42 174.817C363.299 174.502 364.275 174.967 364.589 175.846V175.846C364.903 176.725 364.439 177.701 363.56 178.016L318.38 194.138C317.501 194.452 316.524 193.987 316.21 193.108Z" fill="white"/>
<path d="M295.703 88.6319C296.124 88.3711 296.565 88.1371 297.013 87.9299C302.98 85.1922 310.06 87.8196 312.801 93.7863C315.538 99.753 312.911 106.833 306.944 109.571L305.754 106.977C310.29 104.894 312.286 99.5124 310.207 94.9763C308.124 90.4403 302.742 88.4447 298.206 90.5238C297.865 90.6809 297.528 90.8615 297.207 91.0587L295.703 88.6319Z" fill="#E3E5FC"/>
<path d="M302.829 109.888L308.098 110.383L305.891 105.569L302.829 109.888Z" fill="#E3E5FC"/>
<path d="M301.82 111.82C301.399 112.081 300.958 112.315 300.51 112.522C294.543 115.26 287.46 112.632 284.722 106.666C281.984 100.699 284.612 93.6191 290.578 90.8815L291.768 93.4754C287.232 95.5579 285.237 100.94 287.316 105.476C289.398 110.012 294.78 112.007 299.316 109.928C299.657 109.771 299.995 109.591 300.316 109.393L301.82 111.82Z" fill="#E3E5FC"/>
<path d="M294.697 90.5639L289.425 90.0692L291.631 94.8794L294.697 90.5639Z" fill="#E3E5FC"/>
<path opacity="0.36" d="M307.075 154.41C311.891 154.41 315.796 150.505 315.796 145.688C315.796 140.872 311.891 136.967 307.075 136.967C302.258 136.967 298.354 140.872 298.354 145.688C298.354 150.505 302.258 154.41 307.075 154.41Z" fill="#F44E4E"/>
<path d="M307.075 150.051C309.484 150.051 311.437 148.098 311.437 145.688C311.437 143.279 309.484 141.326 307.075 141.326C304.665 141.326 302.712 143.279 302.712 145.688C302.712 148.098 304.665 150.051 307.075 150.051Z" fill="#F44E4E"/>
<path opacity="0.36" d="M307.075 151.856C310.481 151.856 313.242 149.095 313.242 145.688C313.242 142.282 310.481 139.521 307.075 139.521C303.669 139.521 300.907 142.282 300.907 145.688C300.907 149.095 303.669 151.856 307.075 151.856Z" fill="#F44E4E"/>
</svg>
