<?xml version="1.0" encoding="UTF-8"?>
<svg width="48px" height="48px" viewBox="0 0 48 48" version="1.1" xmlns="http://www.w3.org/2000/svg" xmlns:xlink="http://www.w3.org/1999/xlink">
    <title>bas-logo</title>
    <defs>
        <rect id="path-1" x="0" y="0" width="48" height="48" rx="10"></rect>
    </defs>
    <g id="Page-1" stroke="none" stroke-width="1" fill="none" fill-rule="evenodd">
        <g id="Desktop-HD" transform="translate(-103.000000, -111.000000)">
            <g id="bas-logo" transform="translate(103.000000, 111.000000)">
                <mask id="mask-2" fill="white">
                    <use xlink:href="#path-1"></use>
                </mask>
                <use id="Mask" fill="#E8F7FF" xlink:href="#path-1"></use>
                <g id="logo_e-physio-1" mask="url(#mask-2)" fill="#0089D0" fill-rule="nonzero">
                    <g transform="translate(11.000000, 10.000000)" id="Shape">
                        <path d="M10.507264,28 C10.2108814,27.7640134 9.83944353,27.8227955 9.50340102,27.7481379 C4.57833131,26.6565925 1.06694296,23.1296652 0.254982378,18.063676 C-0.644400428,12.4527723 0.808087878,7.49447883 5.04827908,3.58010437 C9.09315623,-0.154062117 15.4792433,-1.06239608 20.2316008,1.30605147 C24.0687968,3.21840124 26.3328193,7.34044393 25.9601021,11.6366876 C25.6257654,15.4897056 23.4820018,18.0924235 20.3126262,19.9597213 C17.7854842,21.4485823 15.0348825,22.0771649 12.0979221,21.8390329 C8.82150766,21.5734407 6.6478926,19.3903499 6.51910473,16.0878244 C6.37581757,12.418447 7.69354771,9.34976274 10.5725109,7.06026345 C12.2975007,5.68896664 14.2984035,5.18567154 16.4741508,5.7151397 C18.1083068,6.11288443 19.2443693,7.09716317 19.5808382,8.80656445 C19.9347916,10.6056406 19.4217724,12.1283979 17.9240804,13.2396804 C16.6396134,14.1926373 15.1308337,14.5294546 13.5909232,14.7487076 C12.4279943,14.9138982 11.25611,14.9838361 10.0820935,14.9529433 C9.7579916,14.9443619 9.69402412,15.0572065 9.68080417,15.3592693 C9.5946613,17.354858 10.4360469,18.5562445 12.6587037,18.739885 C16.3926989,19.0483838 19.5582364,17.6843812 21.9723692,14.8319465 C23.9425677,12.5042603 23.7536504,9.81401279 22.5851777,7.20271355 C21.4367481,4.63689537 19.2597215,3.2806159 16.5888659,2.75243493 C10.2270865,1.49612797 4.63206399,5.31010084 3.26571856,11.8031655 C2.69854022,14.4981327 2.68148222,17.1797989 3.76381203,19.7640669 C5.14550965,23.0623017 7.66199042,24.900423 11.1708201,25.3346384 C13.6553171,25.6422791 16.0506861,25.2968805 18.2827248,24.0929197 C18.5471237,23.9500405 18.6601329,23.9847949 18.7556577,24.2649754 C18.9424428,24.8141806 19.1377568,25.3612405 19.3595108,25.8967156 C19.4772109,26.1811867 19.4072731,26.3133393 19.1424478,26.4497824 C17.6281242,27.2306836 16.0229669,27.6923593 14.3380634,27.8935915 C14.2148193,27.9081798 14.0587387,27.8378128 13.975581,28 C12.8194753,28 11.6633697,28 10.507264,28 Z M10.2432916,12.2665574 C11.0770011,12.3240523 11.9038874,12.2283705 12.7290679,12.1541419 C13.3862272,12.0953598 14.0395484,11.9786537 14.6711207,11.7709855 C15.2075947,11.5942101 15.7189081,11.3706664 16.1048452,10.9338766 C16.9364225,9.99336262 16.5257513,8.61305542 15.3184716,8.31571227 C15.0071632,8.23890935 14.6851936,8.20930376 14.3589594,8.24105469 C12.5175488,8.42083359 10.5959656,10.292422 10.2432916,12.2665574 Z"></path>
                    </g>
                </g>
            </g>
        </g>
    </g>
</svg>