<svg width="475" height="320" viewBox="0 0 475 320" fill="none" xmlns="http://www.w3.org/2000/svg">
<rect width="475" height="320" fill="#F7FBFD"/>
<path d="M294.066 146.892C294.066 146.892 313.131 177.446 331.351 194.278C349.571 211.111 370.779 228.356 357.935 260.022C345.091 291.689 307.235 304.657 239.54 303.002C171.845 301.347 147.943 300.987 133.096 267.404C118.25 233.821 167.661 226.289 201.413 216.079C235.165 205.869 294.066 146.892 294.066 146.892Z" fill="#E3E5FC"/>
<path opacity="0.49" d="M297.322 213.592C297.322 213.592 306.607 249.433 273.502 257.94C240.398 266.451 178.627 265.197 155.372 248.639C132.117 232.08 297.322 213.592 297.322 213.592Z" fill="url(#paint0_linear)"/>
<path d="M383.501 275.637C386.779 273.619 388.342 269.196 387.06 265.567C384.962 259.636 379.538 261.636 375.683 258.52C371.142 254.853 376.633 249.085 376.33 244.755C375.998 239.991 371.71 235.39 370.418 230.785C367.456 220.202 379.487 228.1 382.918 226.866C384.353 226.35 385.293 224.909 385.625 223.416C386.467 219.612 384.866 216.538 386.948 212.938C388.96 209.463 391.932 207.894 391.074 203.175C390.59 200.503 388.941 198.054 388.983 195.337C388.995 194.559 389.215 193.685 389.895 193.306C390.411 193.016 391.055 193.095 391.613 193.29C393.466 193.94 394.684 195.669 396.176 196.947C397.668 198.226 400.066 199.017 401.498 197.671C402.451 196.775 402.544 195.327 402.738 194.033C403.086 191.699 404.725 190.079 406.759 191.428C408.975 192.898 408.127 198.685 407.792 200.761C407.263 204.052 406.46 207.47 407.439 210.659C409.055 215.933 413.475 210.024 415.401 208.277C416.979 206.845 419.616 205.987 421.131 207.483C424.147 210.458 419.297 214.434 418.659 217.253C418.353 218.595 418.749 220.202 419.941 220.891C423.433 222.913 426.382 219.309 426.912 224.689C427.275 228.375 423.94 231.889 426.009 235.575C427.817 238.795 433.834 240.163 431.456 244.681C429.995 247.456 423.707 247.331 424.039 251.279C424.256 253.852 428.123 255.019 428.127 257.602C428.13 259.547 425.866 260.695 423.924 260.794C421.982 260.893 419.935 260.44 418.146 261.199C416.115 262.06 414.938 264.556 415.566 266.674C416.115 268.514 417.827 270.188 417.288 272.031C416.641 274.247 413.57 274.326 411.29 273.973C401.973 272.515 391.996 271.543 383.501 275.637Z" fill="#FDC510"/>
<path d="M401.096 274.719C400.765 274.719 400.5 274.451 400.5 274.122V232.552C400.5 232.223 400.768 231.956 401.096 231.956C401.428 231.956 401.693 232.223 401.693 232.552V274.119C401.693 274.451 401.428 274.719 401.096 274.719Z" fill="white"/>
<path d="M401.096 258.539C400.962 258.539 400.832 258.495 400.72 258.406C400.465 258.198 400.423 257.822 400.634 257.564L411.536 244.124C411.746 243.865 412.123 243.83 412.378 244.037C412.633 244.245 412.674 244.621 412.464 244.879L401.562 258.319C401.441 258.463 401.272 258.539 401.096 258.539Z" fill="white"/>
<path d="M401.096 247.188C400.959 247.188 400.822 247.143 400.71 247.047L387.717 236.114C387.465 235.9 387.433 235.524 387.643 235.272C387.857 235.02 388.233 234.988 388.485 235.198L401.479 246.132C401.731 246.346 401.763 246.722 401.552 246.974C401.434 247.118 401.265 247.188 401.096 247.188Z" fill="white"/>
<path d="M381.684 269.811C383.393 281.172 384.933 293.057 387.809 304.019C388.048 304.931 388.329 305.888 388.909 306.474C389.595 307.166 390.526 307.179 391.384 307.16C396.345 307.045 401.316 307.364 406.278 307.335C410.968 307.31 414.843 307.689 415.334 299.899C415.503 297.199 415.93 269.808 418.42 269.808C418.411 269.811 381.684 269.811 381.684 269.811Z" fill="#978CFF"/>
<path d="M415.066 276.6H385.038C381.304 276.6 378.246 273.545 378.246 269.808V269.808C378.246 266.074 381.301 263.016 385.038 263.016H415.066C418.8 263.016 421.858 266.071 421.858 269.808V269.808C421.858 273.545 418.8 276.6 415.066 276.6Z" fill="#A7ADFF"/>
<path d="M270.32 27.1832C270.32 27.1832 274.255 35.9265 268.107 41.3089C261.959 46.6914 253.602 42.4313 245.49 47.361C237.378 52.2907 238.252 58.1323 241.973 71.1388C246.399 86.6102 251.233 86.1478 255.579 87.267C259.925 88.3894 261.223 100.497 261.714 106.102C262.205 111.708 262.941 115.519 247.454 123.143C231.967 130.767 240.417 142.428 241.97 157.542C243.688 174.26 223.852 183.902 220.411 187.939C216.971 191.976 208.855 192.649 204.43 184.129C200.004 175.609 222.493 169.337 220.529 155.661C218.562 141.984 206.553 132.782 223.517 119.329C240.481 105.876 237.129 95.1175 231.476 84.1326C225.822 73.1477 223.118 68.8876 227.786 54.7619C232.455 40.6361 227.541 44.8962 233.686 33.6848C239.836 22.4767 262.208 10.143 270.32 27.1832Z" fill="#4B369D"/>
<path d="M259.622 93.5424L260.856 116.561L278.875 123.509C278.875 123.509 268.04 107.655 269.877 93.5392C271.714 79.4262 259.622 93.5424 259.622 93.5424Z" fill="#D4A79A"/>
<path d="M301.381 168.217C301.381 168.217 300.185 166.027 296.601 154.777C293.017 143.528 291.722 139.344 286.745 128.458C281.767 117.572 271.411 110.771 271.411 110.771L258.468 110.072C258.468 110.072 256.874 110.171 249.409 116.344C241.941 122.518 234.773 140.141 234.773 140.141L231.588 175.188L253.991 191.715L269.826 197.422C269.064 196.405 268.448 195.327 268.066 194.186C265.413 186.3 274.303 142.628 274.603 138.745C274.902 134.861 282.424 171.9 282.424 171.9L288.939 170.009L293.409 184.253L296.206 169.71L301.381 168.217Z" fill="#F44E4E"/>
<path d="M294.311 187.136L293.406 184.253L291.961 191.766L294.311 187.136Z" fill="url(#paint1_linear)"/>
<path d="M282.418 171.9C282.418 171.9 274.896 134.861 274.596 138.745C274.296 142.628 265.406 186.3 268.059 194.186C268.442 195.327 269.057 196.405 269.819 197.422L286.11 203.293L291.962 191.762L293.406 184.25L288.935 170.006L282.418 171.9Z" fill="#FDC510"/>
<path d="M282.418 171.9C282.418 171.9 274.896 134.861 274.596 138.745C274.296 142.628 265.406 186.3 268.059 194.186C268.442 195.327 269.057 196.405 269.819 197.422L286.11 203.293L291.962 191.762L293.406 184.25L288.935 170.006L282.418 171.9Z" fill="#D7384E"/>
<path d="M150.401 157.972L241.871 162.385L259.622 179.579L174.185 177.426L150.401 157.972Z" fill="black"/>
<path d="M236.654 165.16L154.074 159.583C151.842 159.755 149.907 158.253 149.751 156.222L133.109 111.574C132.953 109.546 134.633 107.761 136.862 107.588L219.442 113.169C221.674 112.996 223.609 114.498 223.766 116.529L240.407 161.177C240.567 163.202 238.883 164.987 236.654 165.16Z" fill="#E3E5FC"/>
<path d="M195.226 140.121C196.207 135.607 192.733 131.02 187.467 129.875C182.201 128.73 177.137 131.462 176.156 135.976C175.175 140.49 178.648 145.077 183.914 146.221C189.18 147.366 194.244 144.634 195.226 140.121Z" fill="#A7ADFF"/>
<path d="M112.771 237.255L89.4209 271.454L100.052 280.436L122.296 243.307C122.296 243.304 117.197 237.568 112.771 237.255Z" fill="#D4A79A"/>
<path d="M42.1301 290.528C42.1301 290.528 51.1125 293.596 68.3249 294.871C85.5373 296.15 104.749 296.787 108.241 294.233C111.732 291.679 113.977 269.961 108.241 269.961C102.504 269.961 100.272 278.265 90.1544 270.854C81.4877 264.505 74.5619 276.476 59.47 279.668C44.3781 282.859 38.2654 284.141 42.1301 290.528Z" fill="#F3AA02"/>
<path d="M258.12 200.276C256.057 196.396 244.89 198.583 231.508 193.606C218.122 188.628 209.477 178.173 194.27 166.126C179.064 154.079 180.103 156.168 173.541 155.67C166.979 155.173 158.854 172.895 154.269 182.257C144.617 201.97 132.401 219.584 114.152 231.044C108.607 234.526 84.1756 247.771 80.0941 253.32C71.4975 264.997 113.763 265.095 124.815 266.444C135.755 267.777 141.89 261.562 146.316 251.741C151.367 240.54 156.893 229.577 162.413 218.614C165.174 213.13 167.948 207.649 170.655 202.135C171.822 199.76 174.348 191.138 177.163 190.063C185.824 186.766 197.255 213.165 199.685 219.096C204.579 231.044 222.496 244.985 235.516 246.378C248.535 247.771 258.327 239.111 262.597 226.465C266.87 213.819 258.12 200.276 258.12 200.276Z" fill="#4B369D"/>
<path d="M157.314 239.848L133.963 274.046L144.594 283.028L166.838 245.9C166.835 245.896 161.74 240.16 157.314 239.848Z" fill="#EAC2AB"/>
<path d="M86.6723 293.121C86.6723 293.121 95.6547 296.188 112.867 297.463C130.079 298.742 149.291 299.38 152.783 296.826C156.274 294.272 158.519 272.554 152.783 272.554C147.046 272.554 144.814 280.857 134.697 273.446C126.03 267.098 119.104 279.068 104.012 282.26C88.9203 285.452 82.8045 286.734 86.6723 293.121Z" fill="#FDC510"/>
<path d="M291.92 200.276C289.949 196.396 279.274 198.583 266.481 193.606C253.688 188.628 245.423 178.173 230.886 166.126C216.349 154.079 217.344 156.168 211.071 155.67C204.799 155.173 197.032 172.895 192.651 182.257C179.172 211.054 151.434 230.381 126.189 248.16C124.621 249.264 122.86 250.797 123.186 252.688C123.351 253.651 124.04 254.429 124.745 255.109C134.11 264.148 151.654 268.214 164.262 267.624C176.956 267.031 183.847 256.438 188.642 245.963C197.22 227.224 205.6 207.913 216.02 190.127C219.936 183.45 232.416 210.407 233.5 212.916C239.964 227.903 252.795 244.417 270.317 246.378C282.762 247.771 292.121 239.111 296.205 226.465C300.284 213.819 291.92 200.276 291.92 200.276Z" fill="#5A54FF"/>
<path d="M243.522 44.5424C243.522 44.5424 233.899 51.6403 237.729 67.5836C241.558 83.5269 253.468 97.1425 258.273 96.1827C271.56 93.5297 276.219 84.1391 280.826 76.0814C286.477 66.1997 275.259 42.0935 275.259 42.0935L264.663 36.3794L243.522 44.5424Z" fill="#EAC2AB"/>
<path d="M262.699 37.4985C262.699 37.4985 269.386 39.7401 275.262 49.1562C281.139 58.5723 277.284 60.1093 277.284 72.7332C277.284 76.4224 276.592 80.0575 274.593 83.2015C273.142 85.4846 271.073 87.283 269.571 89.5214C267.673 92.3466 267.068 95.5353 267.221 98.9057C267.543 106.032 268.681 111.95 275.011 115.975C281.853 120.324 285.045 126.134 286.844 133.984C288.996 143.384 304.493 148.703 309.901 145.116C315.309 141.528 299.177 143.923 302.376 128.455C305.571 112.984 306.667 106.418 297.325 102.12C287.982 97.8215 292.446 96.6864 297.363 87.2703C302.28 77.8542 289.605 77.9689 294.608 61.5792C300.383 42.6609 295.15 21.5775 266.876 27.4064C238.602 33.2353 262.699 37.4985 262.699 37.4985Z" fill="#4B369D"/>
<path d="M255.815 55.5017C263.927 50.5688 261.962 46.6882 268.11 41.309C274.255 35.9265 270.323 27.1832 270.323 27.1832C262.211 10.143 239.839 22.4736 233.692 33.6849C227.544 44.8962 232.464 40.6362 227.793 54.7619C224.572 64.4969 224.859 69.5477 227.2 75.3447L240.423 80.6985C235.069 60.3867 249.712 59.2101 255.815 55.5017Z" fill="#4B369D"/>
<path d="M288.734 186.536C288.734 186.536 288.734 192.011 286.643 191.017C284.551 190.022 264.937 177.774 262.348 174.888C259.759 171.999 253.685 161.547 253.388 159.455C253.088 157.363 254.086 157.265 250.002 157.861C245.92 158.457 238.551 160.75 239.648 162.041C240.742 163.336 243.828 162.44 243.828 162.44C243.828 162.44 240.213 164.729 241.969 165.029C243.726 165.329 248.905 164.331 248.905 165.925C248.905 167.519 248.605 172.895 249.801 175.583C250.997 178.271 252.489 179.168 256.373 180.064C260.256 180.96 260.942 180.66 264.134 183.947C267.326 187.235 285.147 203.063 287.437 203.86C289.726 204.658 290.721 206.051 293.511 200.972C296.301 195.892 298.291 192.011 298.488 184.046C298.686 176.081 297.79 168.415 297.79 168.415L288.929 170.01C288.935 170.01 289.729 178.97 288.734 186.536Z" fill="#EAC2AB"/>
<path d="M317.401 85.3953C318.988 78.1188 322.534 70.8646 325.136 63.8782C326.52 60.1666 329.559 55.1604 329.868 51.1842C329.97 49.88 331.214 48.9139 332.646 49.0255L385.686 45.4414C387.117 45.553 388.198 46.6977 388.096 48.0019L377.408 76.6775C377.306 77.9817 376.062 78.9478 374.631 78.8362L331.855 81.5689C329.234 83.16 325.076 84.7512 322.451 86.3359C319.54 88.0929 315.943 92.0723 317.401 85.3953Z" fill="#E3E5FC"/>
<path d="M355.786 67.1371L373.02 66.3877C374.181 66.3367 375.087 65.3482 375.036 64.1876V64.1876C374.985 63.0269 373.996 62.1213 372.835 62.1723L355.601 62.9217C354.44 62.9727 353.534 63.9612 353.585 65.1219V65.1219C353.636 66.2793 354.625 67.1849 355.786 67.1371Z" fill="white"/>
<path d="M343.391 59.9976L374.615 58.6424C375.775 58.5914 376.681 57.6029 376.63 56.4422V56.4422C376.579 55.2815 375.591 54.376 374.43 54.427L343.206 55.7822C342.046 55.8332 341.14 56.8217 341.191 57.9823V57.9823C341.242 59.1398 342.231 60.0486 343.391 59.9976Z" fill="white"/>
<path d="M162.126 91.9128C160.289 83.4884 156.185 75.0927 153.169 67.0062C151.568 62.7111 148.048 56.9173 147.691 52.3129C147.573 50.8047 146.135 49.6854 144.476 49.8162L83.0821 45.6677C81.424 45.7953 80.174 47.1218 80.292 48.63L92.664 81.8239C92.782 83.3321 94.2201 84.4514 95.8782 84.3206L145.392 87.487C148.427 89.3268 153.236 91.1731 156.278 93.0065C159.648 95.0377 163.813 99.6453 162.126 91.9128Z" fill="#E3E5FC"/>
<path d="M117.695 70.7785L97.7467 69.9112C96.4043 69.8538 95.3553 68.7059 95.4126 67.3634V67.3634C95.47 66.021 96.618 64.972 97.9604 65.0293L117.909 65.8967C119.251 65.9541 120.3 67.102 120.243 68.4444V68.4444C120.182 69.7868 119.037 70.8359 117.695 70.7785Z" fill="white"/>
<path d="M132.041 62.5166L95.8973 60.9478C94.5548 60.8904 93.5058 59.7425 93.5632 58.4001V58.4001C93.6206 57.0576 94.7685 56.0086 96.1109 56.066L132.254 57.6348C133.597 57.6922 134.646 58.8401 134.588 60.1825V60.1825C134.528 61.525 133.383 62.574 132.041 62.5166Z" fill="white"/>
<g opacity="0.72">
<path d="M195.833 42.7725C194.65 37.3486 192.007 31.9438 190.068 26.7367C189.038 23.9722 186.771 20.2414 186.541 17.276C186.465 16.3034 185.54 15.586 184.472 15.6689L144.942 13C143.874 13.0829 143.07 13.9375 143.144 14.9068L151.109 36.2772C151.185 37.2497 152.11 37.9672 153.178 37.8843L185.059 39.9218C187.013 41.108 190.109 42.2942 192.067 43.474C194.239 44.7845 196.917 47.75 195.833 42.7725Z" fill="#E3E5FC"/>
<path d="M167.224 29.1632L154.38 28.6051C153.516 28.5669 152.84 27.8303 152.879 26.9662V26.9662C152.917 26.102 153.653 25.4261 154.518 25.4643L167.362 26.0223C168.226 26.0606 168.902 26.7972 168.863 27.6613V27.6613C168.825 28.5254 168.089 29.2014 167.224 29.1632Z" fill="white"/>
<path d="M176.462 23.8446L153.191 22.8338C152.327 22.7955 151.651 22.0589 151.689 21.1948V21.1948C151.727 20.3307 152.464 19.6547 153.328 19.693L176.599 20.7038C177.463 20.742 178.139 21.4786 178.101 22.3427V22.3427C178.063 23.2069 177.326 23.8829 176.462 23.8446Z" fill="white"/>
</g>
<path d="M198.241 73.6929L178.292 72.8256C176.95 72.7682 175.901 71.6203 175.958 70.2779V70.2779C176.016 68.9354 177.163 67.8864 178.506 67.9438L198.454 68.8111C199.797 68.8685 200.846 70.0164 200.788 71.3588V71.3588C200.728 72.7013 199.58 73.7503 198.241 73.6929Z" fill="#E3E5FC"/>
<path d="M200.23 83.4407L180.282 82.5734C178.939 82.516 177.89 81.3681 177.948 80.0257V80.0257C178.005 78.6833 179.153 77.6342 180.496 77.6916L200.444 78.5589C201.786 78.6163 202.835 79.7642 202.778 81.1066V81.1066C202.717 82.4491 201.573 83.5013 200.23 83.4407Z" fill="#E3E5FC"/>
<path d="M203.766 93.4498L183.818 92.5824C182.476 92.5251 181.427 91.3771 181.484 90.0347V90.0347C181.541 88.6923 182.689 87.6432 184.032 87.7006L203.98 88.5679C205.322 88.6253 206.372 89.7732 206.314 91.1157V91.1157C206.257 92.4581 205.109 93.5072 203.766 93.4498Z" fill="#E3E5FC"/>
<defs>
<linearGradient id="paint0_linear" x1="308.907" y1="254.783" x2="307.23" y2="202.57" gradientUnits="userSpaceOnUse">
<stop stop-color="#A7ADFF"/>
<stop offset="1" stop-color="#E3E5FC"/>
</linearGradient>
<linearGradient id="paint1_linear" x1="304.042" y1="156.2" x2="263.636" y2="141.911" gradientUnits="userSpaceOnUse">
<stop stop-color="#A7ADFF"/>
<stop offset="1" stop-color="#E3E5FC"/>
</linearGradient>
</defs>
</svg>
