<svg width="475" height="320" viewBox="0 0 475 320" fill="none" xmlns="http://www.w3.org/2000/svg">
<rect width="475" height="320" fill="#F7FBFD"/>
<path d="M365.071 239.126C364.333 237.689 363.717 236.115 363.804 234.515C363.957 231.604 366.286 229.452 368.294 227.429C370.302 225.407 372.264 222.661 371.456 219.841C370.684 217.13 367.782 215.77 365.323 214.456C362.864 213.143 360.222 210.825 360.726 208.083C361.446 204.154 367.797 203.624 368.433 199.678C368.665 198.249 368.019 196.817 367.394 195.494C365.256 190.978 363.118 186.459 360.98 181.943C360.002 179.874 359.111 177.143 360.682 175.578C361.741 174.525 363.428 174.571 364.825 174.065C368.453 172.748 369.486 168.16 370.273 164.294C371.06 160.429 372.949 155.887 376.818 155.652C378.308 155.563 379.774 156.188 381.073 156.983C386.223 160.143 389.455 166.366 389.085 172.41C388.925 174.996 388.24 177.878 389.765 179.999C390.557 181.101 391.798 181.746 392.901 182.521C397.11 185.49 399.486 190.993 398.757 196.082C398.259 199.554 396.494 203.231 398.134 206.373C399.969 209.888 405.104 210.551 406.852 214.109C408.29 217.04 406.745 220.477 404.942 223.095C403.14 225.714 400.952 228.43 401.074 231.674C401.138 233.352 401.829 234.957 402.032 236.627C402.544 240.886 399.801 244.788 396.595 247.45C392.455 250.89 386.154 254.515 380.602 252.565C374.243 250.338 368.184 245.208 365.071 239.126Z" fill="#E3E5FC"/>
<path d="M385.766 232.779C385.564 232.779 385.39 232.628 385.364 232.426L377.549 172.791C377.52 172.569 377.677 172.366 377.899 172.334C378.134 172.3 378.325 172.462 378.357 172.684L386.171 232.319C386.2 232.541 386.044 232.744 385.821 232.776C385.801 232.779 385.783 232.779 385.766 232.779Z" fill="white"/>
<path d="M381.021 193.55C380.966 193.55 380.911 193.538 380.859 193.515C380.654 193.426 380.558 193.185 380.651 192.98L386.631 179.278C386.721 179.07 386.964 178.977 387.166 179.067C387.372 179.156 387.467 179.397 387.375 179.602L381.394 193.304C381.328 193.457 381.177 193.55 381.021 193.55Z" fill="white"/>
<path d="M383.559 215.938C383.452 215.938 383.345 215.897 383.266 215.813L374.613 206.867C374.457 206.705 374.462 206.448 374.622 206.292C374.784 206.135 375.041 206.138 375.197 206.3L383.851 215.246C384.007 215.408 384.001 215.666 383.842 215.822C383.764 215.9 383.66 215.938 383.559 215.938Z" fill="white"/>
<path d="M268.132 265.492C350.63 265.492 417.507 261.342 417.507 256.222C417.507 251.103 350.63 246.953 268.132 246.953C185.635 246.953 118.757 251.103 118.757 256.222C118.757 261.342 185.635 265.492 268.132 265.492Z" fill="#E3E5FC"/>
<path d="M51.2679 257.443C48.4123 256.477 45.6291 254.972 43.8122 252.565C41.9981 250.158 41.3443 246.715 42.7909 244.068C44.2577 241.38 47.3592 240.139 49.9631 238.522C52.5641 236.907 55.0493 233.991 54.0801 231.086C53.1427 228.283 49.6969 227.398 47.3737 225.569C45.4092 224.021 44.1478 221.409 44.7293 218.976C45.3079 216.542 48.0652 214.691 50.4202 215.536C51.8147 216.036 52.9402 217.341 54.4215 217.352C56.9588 217.376 57.8094 213.779 56.9299 211.401C56.0503 209.02 54.2739 206.787 54.5719 204.267C54.9162 201.373 58.1132 199.447 61.015 199.701C63.9169 199.956 66.4282 201.865 68.3174 204.081C72.391 208.864 74.2166 215.099 76.1927 221.061C76.5543 222.155 77.0114 223.35 78.0385 223.871C79.0801 224.4 80.3328 224.044 81.4467 223.683C84.988 222.525 88.5292 221.368 92.0705 220.211C91.2314 220.486 106.817 237.422 107.436 239.312C109.563 245.81 107.723 253.161 101.609 256.486C95.6001 259.752 87.3083 259.069 80.7321 259.13C71.1036 259.214 60.5434 260.577 51.2679 257.443Z" fill="#A7ADFF"/>
<path d="M85.2773 236.144C84.1229 232.944 83.4083 229.261 84.9706 226.24C87.1029 222.115 97.2377 217.737 92.2845 211.864C89.8774 209.011 84.5742 208.887 83.5934 205.285C82.5895 201.608 87.0595 198.619 88.3903 195.599C89.9816 191.988 89.9642 188.033 89.1107 184.251C87.2533 176.043 81.1776 169.363 77.0606 162.249C76.2708 160.883 75.5099 159.335 75.8397 157.796C76.2187 156.028 77.9893 154.834 79.7773 154.55C82.8875 154.058 88.4771 155.331 90.4184 158.071C92.3598 160.811 91.8187 165.061 94.4602 167.132C97.0583 169.169 100.964 167.72 104.06 168.866C111.877 171.762 107.511 186.424 115.028 190.023C116.231 190.599 117.597 190.776 118.812 191.328C121.656 192.621 123.181 195.682 124.491 198.518C126.01 201.807 127.567 205.325 127.081 208.916C126.164 215.715 118.196 221.174 120.175 227.745C120.762 229.695 122.229 231.526 121.847 233.528C121.135 237.263 115.158 237.376 113.523 240.807C111.753 244.531 115.725 248.448 113.668 252.259C112.019 255.317 106.282 257.096 103.018 256.569C94.6975 255.233 87.8233 243.203 85.2773 236.144Z" fill="#E3E5FC"/>
<path d="M107.856 257.163C107.656 257.163 107.482 257.018 107.454 256.815L98.0825 192.147C98.0507 191.924 98.204 191.719 98.4268 191.687C98.6438 191.655 98.855 191.809 98.8868 192.031L108.258 256.7C108.29 256.923 108.136 257.128 107.914 257.16C107.896 257.163 107.876 257.163 107.856 257.163Z" fill="white"/>
<path d="M102.092 214.636C102.043 214.636 101.994 214.627 101.945 214.607C101.737 214.526 101.632 214.288 101.713 214.08L107.419 199.475C107.5 199.267 107.74 199.163 107.945 199.244C108.154 199.325 108.258 199.562 108.177 199.77L102.471 214.375C102.408 214.537 102.254 214.636 102.092 214.636Z" fill="white"/>
<path d="M105.211 238.901C105.101 238.901 104.989 238.854 104.91 238.768L95.9473 228.824C95.7969 228.656 95.8113 228.398 95.9762 228.251C96.144 228.098 96.3986 228.115 96.552 228.28L105.515 238.224C105.666 238.392 105.651 238.649 105.486 238.799C105.405 238.866 105.307 238.901 105.211 238.901Z" fill="white"/>
<path d="M77.7839 293.029C77.5843 293.029 77.4107 292.885 77.3817 292.682L68.0107 228.014C67.9789 227.791 68.1322 227.586 68.355 227.554C68.572 227.525 68.7832 227.675 68.815 227.898L78.186 292.567C78.2179 292.789 78.0645 292.995 77.8417 293.027C77.8244 293.027 77.8041 293.029 77.7839 293.029Z" fill="white"/>
<path d="M72.0207 250.503C71.9715 250.503 71.9224 250.494 71.8732 250.474C71.6649 250.393 71.5607 250.155 71.6417 249.947L77.3471 235.342C77.4281 235.134 77.6682 235.03 77.8736 235.111C78.0819 235.192 78.1861 235.429 78.1051 235.637L72.3997 250.242C72.3361 250.404 72.1827 250.503 72.0207 250.503Z" fill="white"/>
<path d="M75.1395 274.765C75.0296 274.765 74.9168 274.719 74.8386 274.632L65.8756 264.688C65.7251 264.52 65.7396 264.263 65.9045 264.115C66.0723 263.962 66.3269 263.979 66.4773 264.144L75.4404 274.088C75.5909 274.256 75.5764 274.513 75.4115 274.661C75.3334 274.733 75.235 274.765 75.1395 274.765Z" fill="white"/>
<path d="M335.098 252.542C335.332 250.152 335.326 247.936 336.11 245.604C336.374 244.817 336.75 243.978 337.496 243.62C337.638 243.55 337.806 243.504 337.948 243.565C338.072 243.62 338.15 243.744 338.214 243.868C342.276 251.651 331.374 256.029 326.401 250.176C326.094 249.814 325.805 249.4 325.761 248.926C325.683 248.058 326.511 247.308 327.376 247.207C328.241 247.106 329.089 247.499 329.803 247.994C331.695 249.305 332.954 251.324 334.157 253.283C332.479 250.76 331.614 247.708 331.716 244.681C331.73 244.227 331.883 243.646 332.338 243.608C332.555 243.591 332.754 243.715 332.928 243.848C334.166 244.8 334.863 246.325 335.124 247.867C335.381 249.409 335.248 250.986 335.098 252.542Z" fill="#FDC510"/>
<path d="M177.211 236.447C177.321 236.45 177.431 236.479 177.544 236.54C177.897 236.731 178.027 237.165 178.111 237.558C178.878 241.155 178.857 240.272 178.475 244.991C179.28 242.046 178.961 242.561 180.466 239.902C180.758 239.384 181.082 238.854 181.588 238.545C184.872 236.534 181.693 245.442 181.137 246.464C179.077 250.254 175.07 251.191 171.182 249.796C167.771 248.573 164.513 245.917 163.292 242.442C163.182 242.13 163.101 241.736 163.335 241.499C163.497 241.337 163.749 241.314 163.978 241.311C166.038 241.308 167.967 242.355 169.544 243.68C171.118 245.008 172.423 246.623 173.904 248.052C174.954 249.065 177.272 249.007 178.718 249.18C181.18 249.478 182.153 248.523 184.291 247.265C184.756 246.99 185.266 246.741 185.807 246.747C186.348 246.753 186.921 247.091 187.022 247.624C187.083 247.939 186.973 248.263 186.834 248.555C185.083 252.253 180.313 251.755 178.209 248.804C176.204 245.989 174.911 241.302 175.871 237.926C176.065 237.243 176.603 236.433 177.211 236.447Z" fill="#FDC510"/>
<path d="M427.616 243.27C427.691 243.272 427.769 243.29 427.848 243.333C428.093 243.466 428.183 243.77 428.241 244.045C428.776 246.556 428.762 245.94 428.496 249.232C429.057 247.175 428.834 247.537 429.884 245.68C430.09 245.318 430.315 244.948 430.668 244.731C432.96 243.327 430.741 249.542 430.353 250.257C428.915 252.901 426.117 253.558 423.406 252.583C421.025 251.729 418.751 249.875 417.901 247.45C417.823 247.23 417.768 246.958 417.933 246.791C418.045 246.678 418.222 246.66 418.381 246.66C419.819 246.657 421.167 247.389 422.264 248.315C423.36 249.241 424.272 250.369 425.307 251.368C426.039 252.073 427.657 252.033 428.666 252.154C430.385 252.363 431.062 251.694 432.555 250.818C432.879 250.627 433.235 250.45 433.614 250.456C433.99 250.459 434.389 250.696 434.461 251.067C434.505 251.287 434.427 251.512 434.331 251.715C433.11 254.295 429.78 253.948 428.313 251.888C426.913 249.924 426.013 246.652 426.682 244.297C426.818 243.825 427.194 243.261 427.616 243.27Z" fill="#A7ADFF"/>
<path d="M382.537 234.358C380.822 232.449 379.138 230.531 378.617 228.034C378.348 226.741 378.797 224.97 380.113 224.895C380.775 224.857 381.357 225.294 381.944 225.604C384.204 226.801 384.218 224.108 383.596 222.682C382.503 220.167 380.83 217.659 381.201 214.942C381.224 214.772 381.261 214.592 381.38 214.465C381.557 214.277 381.852 214.277 382.106 214.309C383.845 214.537 385.636 216.797 387.427 216.059C391.801 214.259 388.017 204.211 387.719 201.11C387.661 200.517 387.612 199.883 387.898 199.362C388.454 198.35 389.973 198.33 390.968 198.911C392.496 199.805 393.364 201.541 395.03 202.247C396.344 202.802 397.839 202.166 398.806 201.229C401.713 198.411 402.39 193.808 404.682 190.538C406.557 187.862 411.77 183.791 414.689 187.414C416.026 189.071 415.227 191.49 414.681 193.547C414.171 195.454 413.755 197.696 413.949 199.666C414.093 201.11 414.71 202.574 415.893 203.413C418.193 205.042 422.515 205.094 420.137 208.971C419.408 210.157 418.277 211.036 417.406 212.124C416.535 213.212 415.928 214.714 416.492 215.987C417.519 218.31 424.408 219.166 421.769 222.815C421.109 223.729 420.059 224.261 419.084 224.825C414.368 227.551 418.601 229.943 417.69 233.69C417.363 235.038 416.341 236.135 415.161 236.858C413.263 238.021 410.96 238.464 408.929 239.349C404.803 241.152 401.115 243.834 397.666 246.698C395.137 248.798 391.171 253.488 387.441 251.223C385.141 249.825 386.576 245.902 386.787 243.86C387.201 239.887 385.066 237.173 382.537 234.358Z" fill="#FDC510"/>
<path d="M389.082 254.142C389.018 254.142 388.954 254.13 388.891 254.107C388.61 254.003 388.468 253.691 388.575 253.41L405.891 207.368C405.995 207.087 406.311 206.946 406.588 207.053C406.869 207.157 407.011 207.469 406.904 207.75L389.588 253.792C389.507 254.009 389.302 254.142 389.082 254.142Z" fill="white"/>
<path d="M401.343 222.311C401.17 222.311 400.996 222.227 400.892 222.071C400.727 221.822 400.793 221.486 401.042 221.319L409.467 215.7C409.713 215.535 410.052 215.599 410.219 215.851C410.384 216.099 410.318 216.435 410.069 216.603L401.644 222.221C401.551 222.282 401.447 222.311 401.343 222.311Z" fill="white"/>
<path d="M395.238 239.069C395.065 239.069 394.891 238.985 394.787 238.828C394.622 238.58 394.689 238.244 394.938 238.076L403.362 232.458C403.608 232.293 403.947 232.359 404.115 232.608C404.28 232.857 404.213 233.193 403.964 233.36L395.539 238.979C395.447 239.04 395.343 239.069 395.238 239.069Z" fill="white"/>
<path d="M397.252 230.834C397.076 230.834 396.899 230.748 396.795 230.586L391.434 222.219C391.272 221.967 391.347 221.631 391.599 221.469C391.848 221.307 392.186 221.38 392.348 221.634L397.709 230.001C397.871 230.253 397.796 230.589 397.544 230.751C397.455 230.808 397.353 230.834 397.252 230.834Z" fill="white"/>
<path d="M370.01 251.856C362.739 252.681 355.706 251.868 352.801 244.354C351.757 241.649 350.226 240.584 347.507 239.818C346.184 239.445 344.799 239.016 343.858 238.012C342.921 237.009 342.658 235.238 343.676 234.315C344.489 233.577 345.724 233.65 346.815 233.762C348.623 233.953 350.435 234.141 352.243 234.332C352.5 234.358 352.772 234.384 353.004 234.272C353.773 233.898 353.29 232.729 352.72 232.093C350.591 229.712 348.398 227.386 346.147 225.123C345.314 224.287 344.443 223.408 344.101 222.276C343.76 221.145 344.162 219.693 345.27 219.282C346.807 218.709 348.606 220.376 350.056 219.612C351.094 219.065 351.222 217.616 350.95 216.476C350.678 215.336 350.142 214.196 350.348 213.041C350.545 211.939 351.473 211.007 352.576 210.811C353.675 210.611 354.873 211.161 355.44 212.124C356.065 213.183 356.024 214.696 357.051 215.373C357.913 215.94 359.091 215.582 359.947 215.009C360.807 214.436 361.553 213.655 362.531 213.322C364.189 212.755 366.211 213.857 366.636 215.556C367.059 217.248 366.084 219.198 366.96 220.708C367.776 222.114 369.749 222.305 371.344 221.984C372.938 221.663 374.541 221.001 376.138 221.316C376.687 221.423 377.263 221.695 377.486 222.207C377.729 222.768 377.477 223.416 377.176 223.949C376.265 225.549 374.882 226.845 374.014 228.468C373.146 230.091 372.941 232.327 374.274 233.595C374.975 234.263 375.952 234.523 376.838 234.92C377.723 235.316 378.614 235.981 378.739 236.942C378.95 238.565 377.008 239.502 376.007 240.796C374.705 242.474 375.027 244.832 374.977 246.955C374.836 252.999 368.925 252.869 364.432 251.764" fill="#F44E4E"/>
<path d="M371.025 253.08C370.805 253.08 370.6 252.947 370.519 252.73L360.491 226.069C360.384 225.789 360.526 225.476 360.807 225.372C361.084 225.265 361.4 225.407 361.504 225.688L371.532 252.348C371.639 252.629 371.497 252.941 371.216 253.045C371.153 253.069 371.089 253.08 371.025 253.08Z" fill="white"/>
<path d="M363.926 234.648C363.821 234.648 363.717 234.619 363.625 234.558L358.747 231.306C358.498 231.141 358.431 230.803 358.596 230.554C358.761 230.305 359.103 230.239 359.349 230.403L364.226 233.655C364.475 233.82 364.542 234.159 364.377 234.408C364.27 234.564 364.099 234.648 363.926 234.648Z" fill="white"/>
<path d="M367.461 244.351C367.357 244.351 367.253 244.322 367.16 244.262L362.279 241.01C362.03 240.845 361.964 240.506 362.129 240.258C362.297 240.009 362.632 239.942 362.881 240.107L367.762 243.359C368.011 243.524 368.077 243.862 367.912 244.111C367.805 244.267 367.635 244.351 367.461 244.351Z" fill="white"/>
<path d="M366.292 239.583C366.191 239.583 366.09 239.555 366 239.497C365.748 239.335 365.673 238.999 365.835 238.747L368.939 233.904C369.101 233.65 369.44 233.577 369.689 233.739C369.94 233.901 370.016 234.237 369.854 234.489L366.749 239.332C366.645 239.497 366.471 239.583 366.292 239.583Z" fill="white"/>
<path d="M223.6 54.4721C245.606 55.0999 267.776 55.7161 289.49 52.091C293.054 51.495 297.316 50.1178 298.019 46.5708C298.887 42.1934 293.317 39.1845 288.871 39.549C284.424 39.9136 280.043 42.0198 275.663 41.1663C272.333 40.5182 269.585 38.2587 266.932 36.1438C262.815 32.8629 258.313 29.6514 253.096 28.9455C247.88 28.2396 241.839 30.9071 240.485 35.9933C234.817 34.8331 229.751 31.775 224.416 29.5386C219.081 27.3022 212.919 25.8932 207.584 28.1296C202.249 30.3661 198.803 37.4978 202.113 42.2426C199.086 37.8999 179.181 47.8669 176.19 49.9037C171.529 53.0804 168.937 54.6109 174.544 55.8897C179.986 57.1309 187.913 54.1856 193.491 53.8732C203.464 53.3235 213.619 54.1885 223.6 54.4721Z" fill="#E3E5FC"/>
<path d="M384.166 117.705C385.859 117.778 388.113 117.404 388.309 115.724C388.448 114.534 387.366 113.588 386.371 112.917C384.406 111.592 382.043 110.357 379.766 111.016C378.889 111.271 378.108 111.789 377.225 112.023C372.107 113.371 368.161 104.834 363.104 106.393C362.276 106.648 361.559 107.16 360.781 107.539C359.803 108.013 358.735 108.276 357.668 108.47C354.147 109.107 350.498 109.026 347.009 108.242C345.429 107.886 343.853 107.382 342.232 107.443C337.997 107.599 330.341 111.566 334.803 115.984C337.985 119.132 342.056 117.931 345.759 117.095C357.647 114.401 372.029 117.19 384.166 117.705Z" fill="#E3E5FC"/>
<path d="M109.571 122.01C106.533 121.97 102.373 120.703 102.862 117.703C103.279 115.156 106.82 114.659 109.273 115.454C111.727 116.25 114.305 117.705 116.72 116.797C117.687 116.432 118.52 115.709 119.541 115.544C120.603 115.373 121.702 115.839 122.753 115.602C124.28 115.258 125.18 113.562 126.679 113.105C129.178 112.344 131.962 115.347 134.23 114.046C135.648 113.233 135.789 111.3 136.116 109.7C137.372 103.569 144.463 99.3481 150.449 101.165C158.261 103.535 162.314 113.791 170.438 114.578C173.809 114.905 187.722 112.249 185.179 120.428C183.611 125.474 167.34 122.763 163.173 122.708C145.308 122.476 127.44 122.245 109.571 122.01Z" fill="#E3E5FC"/>
<path d="M363.726 85.8341C365.184 85.6055 367.085 84.6942 366.642 83.2881C366.506 82.8512 366.147 82.5185 365.777 82.2465C360.52 78.4044 353.067 83.7336 346.728 82.2523C344.822 81.8068 343.106 80.7537 341.226 80.2126C340.138 79.9002 339.001 79.7642 337.945 79.3505C334.427 77.9762 332.65 73.946 329.372 72.0654C325.2 69.6728 319.101 72.0278 317.617 76.5991C316.807 79.093 316.986 82.3044 314.765 83.696C312.039 85.403 307.274 82.9293 306.308 86.9538C314.134 90.2288 321.89 87.1447 329.905 87.3096C341.309 87.5469 352.405 87.5989 363.726 85.8341Z" fill="#E3E5FC"/>
<path d="M252.738 94.6554C253.892 94.476 255.396 93.7527 255.049 92.6389C254.939 92.2917 254.659 92.0284 254.364 91.8143C250.2 88.7707 244.298 92.9918 239.276 91.8201C237.765 91.4671 236.408 90.631 234.916 90.2057C234.053 89.9598 233.154 89.8498 232.317 89.5229C229.531 88.4351 228.125 85.2439 225.527 83.7539C222.223 81.8589 217.394 83.7221 216.22 87.3443C215.578 89.3204 215.719 91.8635 213.96 92.9658C211.802 94.3169 208.029 92.3582 207.263 95.5436C213.46 98.1388 219.605 95.697 225.95 95.8271C234.985 96.0123 243.774 96.0528 252.738 94.6554Z" fill="#E3E5FC"/>
<path d="M149.379 145.816C149.989 145.72 150.785 145.338 150.6 144.748C150.542 144.566 150.391 144.424 150.238 144.311C148.036 142.703 144.914 144.933 142.259 144.314C141.46 144.126 140.742 143.686 139.953 143.461C139.498 143.33 139.021 143.273 138.578 143.099C137.106 142.523 136.362 140.836 134.988 140.05C133.24 139.048 130.686 140.032 130.067 141.947C129.728 142.992 129.803 144.337 128.872 144.922C127.732 145.636 125.736 144.6 125.331 146.284C128.608 147.656 131.858 146.365 135.214 146.435C139.99 146.533 144.637 146.553 149.379 145.816Z" fill="#E3E5FC"/>
<path d="M98.4933 79.4951C97.3389 79.3158 95.8345 78.5925 96.1817 77.4786C96.2916 77.1314 96.5722 76.8681 96.8674 76.654C101.031 73.6104 106.933 77.8316 111.955 76.6598C113.466 76.3068 114.822 75.4707 116.315 75.0454C117.177 74.7995 118.077 74.6896 118.913 74.3626C121.7 73.2748 123.106 70.0836 125.704 68.5936C129.008 66.6986 133.836 68.5618 135.011 72.1841C135.653 74.1601 135.512 76.7032 137.271 77.8055C139.429 79.1566 143.202 77.1979 143.968 80.3833C137.771 82.9785 131.626 80.5367 125.281 80.6669C116.246 80.852 107.459 80.8954 98.4933 79.4951Z" fill="#E3E5FC"/>
<path d="M159.265 242.662C159.493 242.457 159.69 242.219 159.843 241.936C161.203 239.399 158.07 236.109 157.32 233.873C156.215 230.574 156.687 226.452 157.558 223.136C158.252 220.489 160.078 218.53 160.992 215.981C162.415 212.012 158.24 206.292 155.069 204.249C147.958 199.669 150.05 211.086 147.055 212.987C146.13 213.574 144.943 213.455 143.858 213.635C139.935 214.297 142.629 218.377 141.448 220.746C141.017 221.611 140.149 222.155 139.478 222.855C136.229 226.229 143.832 227.898 136.949 230.919C135.182 231.694 133.307 233.236 134.412 234.448C134.756 234.824 135.326 235.056 135.795 235.354C137.907 236.69 137.757 239.072 137.438 241.12C137.097 243.327 138.92 244.922 139.825 246.727C140.844 248.761 140.201 251.559 143.395 251.651C145.583 251.712 147.307 250.129 149.052 249.047C150.964 247.858 152.94 246.724 154.54 245.115C155.749 243.923 158.003 243.782 159.265 242.662Z" fill="#A7ADFF"/>
<path d="M143.031 253.653C142.996 253.653 142.962 253.65 142.924 253.639C142.707 253.581 142.58 253.358 142.637 253.141L151.867 218.868C151.925 218.652 152.15 218.524 152.364 218.582C152.581 218.64 152.709 218.863 152.651 219.08L143.422 253.352C143.372 253.532 143.21 253.653 143.031 253.653Z" fill="white"/>
<path d="M149.277 229.848C149.098 229.848 148.936 229.729 148.884 229.55L147.099 223.014C147.041 222.797 147.168 222.575 147.382 222.514C147.602 222.456 147.822 222.583 147.883 222.797L149.668 229.333C149.726 229.55 149.598 229.773 149.384 229.834C149.35 229.845 149.312 229.848 149.277 229.848Z" fill="white"/>
<path d="M145.826 242.251C145.646 242.251 145.481 242.133 145.432 241.95L143.647 235.417C143.589 235.2 143.717 234.978 143.934 234.917C144.148 234.859 144.373 234.986 144.434 235.203L146.219 241.736C146.277 241.953 146.15 242.176 145.933 242.237C145.898 242.245 145.863 242.251 145.826 242.251Z" fill="white"/>
<path d="M147.975 236.523C147.831 236.523 147.692 236.445 147.62 236.312C147.512 236.115 147.585 235.866 147.782 235.759L153.383 232.701C153.582 232.594 153.828 232.666 153.935 232.863C154.042 233.06 153.97 233.308 153.773 233.415L148.172 236.474C148.108 236.508 148.042 236.523 147.975 236.523Z" fill="white"/>
<path d="M204.407 151.356L207.61 150.688L205.339 153.306L204.407 151.356Z" fill="#4B369D"/>
<path d="M192.287 160.044C191.399 161.12 190.485 162.402 189.38 163.357C188.283 164.303 186.229 164.491 185.393 165.515C187.959 168.316 194.292 166.328 197.061 164.876C200.756 162.94 203.762 159.616 205.069 155.632C205.767 153.506 205.877 150.841 204.196 149.363C203.38 148.645 202.286 148.35 201.224 148.113C199.564 147.742 197.521 147.343 195.878 148.008C193.378 149.021 196.106 148.871 196.665 150.019C197.324 151.376 195.953 153.96 195.36 155.117C194.475 156.838 193.529 158.545 192.287 160.044Z" fill="#A7ADFF"/>
<path d="M202.078 151.356C202.447 151.356 202.746 151.057 202.746 150.688C202.746 150.319 202.447 150.019 202.078 150.019C201.709 150.019 201.41 150.319 201.41 150.688C201.41 151.057 201.709 151.356 202.078 151.356Z" fill="#4B369D"/>
<path d="M190.887 151.778C189.166 151.153 187.236 150.812 185.931 149.524C185.214 148.815 184.615 147.788 183.611 147.704C183.457 147.69 183.29 147.707 183.177 147.814C183.038 147.947 183.038 148.164 183.047 148.355C183.104 149.501 183.168 150.676 183.622 151.729C184.077 152.782 185.014 153.705 186.157 153.803C186.296 153.815 186.446 153.818 186.565 153.89C186.909 154.101 186.721 154.654 186.411 154.917C186.102 155.18 185.682 155.386 185.595 155.779C185.503 156.196 185.867 156.604 186.278 156.719C186.689 156.835 187.126 156.734 187.543 156.633C187.389 157.362 187.357 158.337 188.046 158.62C188.645 158.869 189.464 158.383 189.927 158.834C190.1 159.002 190.158 159.254 190.253 159.474C190.569 160.191 191.344 160.628 192.125 160.706C192.904 160.784 193.685 160.553 194.399 160.235C196.242 159.416 198.268 157.596 196.792 155.704C195.406 153.927 192.964 152.53 190.887 151.778Z" fill="#978CFF"/>
<path d="M295.241 133.132L292.863 132.637L294.55 134.579L295.241 133.132Z" fill="#4B369D"/>
<path d="M304.233 139.578C304.893 140.376 305.57 141.328 306.389 142.037C307.202 142.74 308.727 142.879 309.349 143.637C307.445 145.717 302.746 144.242 300.689 143.163C297.949 141.725 295.719 139.26 294.747 136.303C294.229 134.726 294.148 132.747 295.395 131.651C295.999 131.118 296.812 130.901 297.599 130.725C298.832 130.45 300.348 130.152 301.566 130.647C303.42 131.399 301.398 131.286 300.981 132.139C300.493 133.146 301.508 135.065 301.951 135.921C302.61 137.2 303.313 138.467 304.233 139.578Z" fill="#A7ADFF"/>
<path d="M296.969 133.132C297.242 133.132 297.463 132.91 297.463 132.637C297.463 132.364 297.242 132.142 296.969 132.142C296.695 132.142 296.474 132.364 296.474 132.637C296.474 132.91 296.695 133.132 296.969 133.132Z" fill="#4B369D"/>
<path d="M305.272 133.447C306.551 132.984 307.983 132.73 308.949 131.775C309.482 131.248 309.924 130.487 310.671 130.424C310.784 130.415 310.911 130.427 310.992 130.505C311.093 130.603 311.096 130.765 311.087 130.907C311.044 131.758 310.998 132.628 310.659 133.41C310.321 134.191 309.626 134.876 308.779 134.949C308.674 134.957 308.564 134.96 308.475 135.015C308.217 135.172 308.359 135.582 308.59 135.776C308.819 135.97 309.131 136.123 309.195 136.416C309.265 136.725 308.996 137.029 308.689 137.113C308.382 137.197 308.058 137.124 307.751 137.049C307.864 137.59 307.89 138.314 307.378 138.525C306.933 138.71 306.328 138.348 305.981 138.684C305.854 138.808 305.81 138.993 305.738 139.158C305.503 139.691 304.928 140.015 304.349 140.073C303.77 140.13 303.192 139.96 302.662 139.723C301.294 139.115 299.792 137.764 300.889 136.361C301.919 135.041 303.73 134.006 305.272 133.447Z" fill="#978CFF"/>
<path d="M314.837 166.591L311.249 167.199L314.663 168.993L314.837 166.591Z" fill="#4B369D"/>
<path d="M330.906 170.674C332.26 171.426 333.727 172.384 335.257 172.925C336.776 173.46 338.981 172.821 340.259 173.541C338.74 177.481 331.374 177.991 327.92 177.612C323.311 177.105 318.85 174.883 315.878 171.287C314.293 169.369 313.098 166.652 314.241 164.442C314.796 163.369 315.809 162.619 316.81 161.945C318.378 160.886 320.331 159.645 322.304 159.668C325.304 159.703 322.417 160.652 322.304 162.07C322.171 163.742 324.639 165.862 325.724 166.817C327.344 168.244 329.016 169.624 330.906 170.674Z" fill="#A7ADFF"/>
<path d="M316.978 165.7C317.388 165.7 317.721 165.368 317.721 164.957C317.721 164.546 317.388 164.213 316.978 164.213C316.567 164.213 316.234 164.546 316.234 164.957C316.234 165.368 316.567 165.7 316.978 165.7Z" fill="#4B369D"/>
<path d="M329.008 161.549C330.538 160.203 332.398 159.066 333.223 157.206C333.677 156.182 333.883 154.877 334.887 154.379C335.04 154.304 335.222 154.252 335.381 154.319C335.578 154.4 335.665 154.625 335.734 154.825C336.139 156.034 336.55 157.275 336.507 158.548C336.463 159.824 335.865 161.158 334.725 161.725C334.586 161.795 334.432 161.858 334.337 161.983C334.065 162.341 334.487 162.836 334.913 162.981C335.338 163.125 335.856 163.169 336.108 163.542C336.374 163.935 336.162 164.505 335.781 164.792C335.402 165.078 334.907 165.151 334.435 165.217C334.889 165.912 335.318 166.904 334.722 167.48C334.201 167.98 333.159 167.809 332.861 168.466C332.751 168.712 332.792 168.993 332.78 169.262C332.746 170.133 332.118 170.902 331.342 171.299C330.567 171.695 329.667 171.773 328.796 171.733C326.554 171.631 323.722 170.57 324.483 168.012C325.2 165.608 327.159 163.172 329.008 161.549Z" fill="#978CFF"/>
<path d="M254.479 154.157L254.835 172.702L268.766 180.039L273.149 171.554L278.279 155.795L275.666 150.092L254.479 154.157Z" fill="#D4A79A"/>
<path d="M257.005 251.949C256.4 251.625 255.917 252.042 254.714 252.409C251.939 253.257 249.083 253.836 246.199 254.131C245.111 254.244 243.925 254.354 243.129 255.103C242.348 255.838 242.16 256.981 241.827 257.999C240.494 262.076 236.576 264.63 233.747 267.859C233.486 268.154 233.223 268.562 233.408 268.909C233.538 269.155 233.842 269.248 234.12 269.288C235.786 269.534 237.433 268.785 238.899 267.952C241.13 266.687 243.225 265.189 245.143 263.49C246.401 262.374 247.617 261.147 249.162 260.478C249.957 260.134 250.811 259.949 251.65 259.735C254.459 259.015 257.176 257.924 259.701 256.5C259.085 255.297 258.547 253.526 257.662 252.516C257.407 252.236 257.199 252.054 257.005 251.949Z" fill="#EAC2AB"/>
<path d="M265.181 252.823C265.786 252.499 266.269 252.916 267.473 253.286C270.247 254.134 273.103 254.712 275.987 255.007C277.075 255.12 278.261 255.23 279.057 255.979C279.838 256.714 280.026 257.857 280.359 258.876C281.693 262.952 285.61 265.507 288.439 268.736C288.7 269.031 288.963 269.439 288.778 269.786C288.648 270.032 288.344 270.124 288.066 270.165C286.4 270.411 284.754 269.661 283.287 268.828C281.056 267.564 278.961 266.065 277.043 264.367C275.785 263.25 274.57 262.023 273.025 261.355C272.229 261.011 271.375 260.826 270.536 260.611C267.727 259.891 265.01 258.8 262.485 257.377C263.101 256.173 263.639 254.403 264.524 253.393C264.779 253.107 264.987 252.927 265.181 252.823Z" fill="#EAC2AB"/>
<path d="M260.621 259C271.031 252.592 283.562 250.957 295.351 247.728C307.141 244.499 319.408 238.678 324.622 227.621C325.941 224.826 326.508 220.975 324.069 219.077C323.129 218.345 321.919 218.076 320.745 217.876C308.084 215.735 295.178 219.702 283.437 224.898C280.799 226.067 278.177 227.302 275.411 228.124C270.189 229.675 264.652 229.686 259.207 229.686C252.735 229.686 246.263 229.689 239.793 229.599C235.619 229.542 231.366 229.435 227.408 228.101C224.798 227.221 222.397 225.833 219.894 224.684C213.952 221.953 207.393 220.573 200.854 220.674C198.204 220.715 195.47 221.024 193.158 222.32C190.847 223.616 189.041 226.102 189.215 228.746C189.449 232.305 192.88 234.683 196.005 236.396C206.62 242.217 217.889 246.765 229.303 250.809C233.556 252.317 241.066 253.934 245.571 254.203C249.963 254.463 251.829 253.19 255.804 252.531C259.519 251.917 258.909 256.147 260.621 259Z" fill="#5A54FF"/>
<path d="M277.492 242.098C286.246 239.031 294.998 235.967 303.753 232.901C298.166 233.086 292.51 233.283 287.143 234.842C281.423 236.506 276.262 239.65 270.788 242.003C265.314 244.358 259.134 245.926 253.423 244.233C251.349 243.617 249.439 242.546 247.402 241.815C226.878 234.451 221.633 228.847 214.733 234.451C219.425 232.478 245.678 245.79 253.872 251.052C258.515 254.035 260.598 250.184 264.568 247.74C268.578 245.272 273.062 243.649 277.492 242.098Z" fill="#4B369D"/>
<path d="M255.501 172.028C255.501 172.028 244.313 190.203 235.361 205.939C233.264 209.628 230.506 212.912 227.286 215.518C224.914 217.436 222.168 218.724 219.42 219.881C218.39 220.315 216.877 221.299 215.763 221.313C214.394 221.334 213.486 220.269 212.256 219.826C211.727 219.635 211.151 219.595 210.601 219.711C207.636 220.327 211.692 222.899 212.554 222.387C211.238 223.165 209.727 223.451 208.292 223.923C206.857 224.395 205.393 225.129 204.589 226.489C204.21 227.129 204.039 228.057 204.552 228.578C204.841 228.87 205.26 228.943 205.654 228.995C207.21 229.203 208.779 229.33 210.35 229.377C214.206 229.492 215.334 227.447 218.416 225.26C221.598 223 227.356 220.567 230.535 218.313C233.886 215.938 237.794 213.123 239.744 209.231C243.555 201.631 256.502 177.976 256.502 177.976L255.501 172.028Z" fill="#EAC2AB"/>
<path d="M267.267 173.773C267.267 173.773 278.449 188.597 288.836 203.422C291.272 206.897 294.324 209.908 297.776 212.2C300.316 213.887 303.172 214.911 306.016 215.805C307.083 216.14 308.68 216.976 309.791 216.887C311.154 216.777 311.958 215.631 313.144 215.079C313.654 214.841 314.224 214.746 314.782 214.807C317.794 215.142 313.995 218.082 313.087 217.653C314.469 218.304 316 218.446 317.475 218.782C318.951 219.117 320.476 219.711 321.404 220.989C321.841 221.588 322.099 222.5 321.639 223.064C321.378 223.382 320.968 223.492 320.58 223.582C319.049 223.935 317.502 224.209 315.942 224.403C312.114 224.881 310.798 222.951 307.526 221.062C304.147 219.109 298.187 217.231 294.81 215.284C291.252 213.236 287.097 210.8 284.788 207.105C280.284 199.898 265.17 177.563 265.17 177.563L267.267 173.773Z" fill="#EAC2AB"/>
<path d="M242.849 231.072C245.976 231.451 249.04 230.459 252.208 230.143C255.315 229.834 258.57 230.644 261.585 231.301C268.103 232.721 273.93 231.824 279.812 228.682C283.553 226.686 277.657 220.917 276.476 218.738C275.325 216.615 274.821 214.208 274.431 211.827C273.302 204.967 272.981 197.971 273.485 191.036C273.861 185.823 272.064 182.091 270.412 177.256C269.587 174.846 270.803 174.001 269.333 172.028C268.433 170.822 264.556 174.554 263.11 174.435C260.35 174.209 256.707 170.674 254.838 172.699C253.296 174.372 252.214 176.405 251.152 178.419C248.444 183.543 245.687 188.811 244.978 194.563C244.029 202.279 245.982 207.895 243.482 215.325C242.817 217.306 242.261 221.718 238.029 229.571C238 229.628 240.609 230.546 240.795 230.609C241.483 230.844 242.169 230.991 242.849 231.072Z" fill="#F44E4E"/>
<path d="M264.519 127.082C264.519 127.082 266.816 132.189 263.225 135.334C259.635 138.479 254.754 135.987 250.015 138.869C245.276 141.751 245.788 145.162 247.961 152.756C250.545 161.792 253.371 161.523 255.908 162.177C258.446 162.83 259.207 169.901 259.493 173.179C259.947 178.367 255.289 180.082 251.719 182.495C248.754 184.5 246.601 186.676 247.677 190.486C248.152 192.167 248.843 193.955 248.262 195.604C247.703 197.187 246.063 198.185 244.405 198.457C242.108 198.833 238.656 198.955 240.031 195.981C243.025 189.494 237.49 190.128 236.304 185.111C235.011 179.646 232.578 175.152 238.795 171.875C240.653 170.894 242.73 169.968 243.731 168.122C245.713 164.474 242.73 161.048 241.171 157.932C238.894 153.384 238.058 148.081 239.678 143.186C242.406 134.934 239.533 137.422 243.123 130.875C246.714 124.331 259.78 117.127 264.519 127.082Z" fill="#4B369D"/>
<path d="M251.444 136.586C251.444 136.586 245.545 140.324 247.116 149.774C248.687 159.22 257.271 167.83 260.109 167.468C267.959 166.47 268.858 161.008 271.876 156.503C275.576 150.98 270.036 136.471 270.036 136.471L264.099 132.704L251.444 136.586Z" fill="#EAC2AB"/>
<path d="M260.066 133.106C260.066 133.106 263.972 134.417 267.403 139.917C270.834 145.417 274.61 147.803 272.136 154.744C271.005 157.915 270.079 160.675 268.928 163.441C267.504 166.864 266.44 170.414 265.829 174.074C265.314 177.158 266.833 178.11 268.766 180.039C272.596 183.864 272.738 189.161 276.123 192.856C278.435 195.379 284.348 198.145 287.638 195.966C290.797 193.872 281.374 195.272 283.243 186.234C285.112 177.195 285.749 173.362 280.292 170.853C274.836 168.342 277.442 167.68 280.315 162.18C283.188 156.68 275.785 156.746 278.707 147.173C282.08 136.124 279.022 123.807 262.511 127.213C245.994 130.618 260.066 133.106 260.066 133.106Z" fill="#4B369D"/>
<path d="M256.044 143.623C260.783 140.741 259.635 138.476 263.225 135.334C266.816 132.192 264.519 127.082 264.519 127.082C259.78 117.13 246.714 124.331 243.124 130.881C239.533 137.428 242.406 134.94 239.678 143.192C237.797 148.88 239.805 154.553 241.171 157.938L247.052 158.343C243.928 146.475 252.483 145.787 256.044 143.623Z" fill="#4B369D"/>
</svg>
