<svg width="1007" height="658" viewBox="0 0 1007 658" fill="none" xmlns="http://www.w3.org/2000/svg">
<rect width="1007" height="658" fill="white"/>
<g clip-path="url(#clip0)">
<path d="M61.4834 573C61.4834 573 42.7029 418.558 108.435 371.755C165.673 330.989 213.284 306.231 310.317 303.111C407.349 299.991 460.545 299.975 518.459 236.034C576.374 172.094 654.673 75.4777 742.236 72.232C826.749 69.0962 878.387 95.6257 926.895 282.837C975.404 470.049 925.322 566.76 923.749 568.312C922.664 569.425 61.4834 573 61.4834 573Z" fill="#F8F8FF"/>
<path d="M455.54 452.352C460.875 387.808 441 293.354 464.195 280.209C487.091 267.253 494.897 263.018 518.658 236.681C576.584 172.468 654.872 75.4637 742.555 72.2208C827.106 69.0723 878.769 95.7084 927.3 283.672C951.565 377.654 950.133 427.305 947.757 456.98C946.466 473.305 945.176 494.557 944.389 495.328C943.304 496.446 451.118 505.954 455.54 452.352Z" fill="#E9EDFC"/>
<path d="M259.449 244.001L252.494 571.851C252.494 574.197 258.788 573.426 260.362 573.426H269.804L268.356 244.536L324.597 246.11L300.175 108.097C299.564 104.633 297.753 101.496 295.059 99.2358C292.365 96.9757 288.961 95.7377 285.445 95.7393H246.64C242.145 95.727 237.79 97.2977 234.337 100.176C230.884 103.055 228.554 107.057 227.756 111.482L203.979 242.978L259.449 244.001Z" fill="#E1E6FC"/>
<path d="M162.608 496.162C162.608 496.162 162.262 509.008 164.434 510.441C165.366 511.172 166.436 511.708 167.581 512.015L178.392 570.372C178.392 570.372 210.085 576.134 225.931 569.648L236.742 511.999L240.346 510.551L241.793 496.147C241.793 496.147 202.94 483.191 162.608 496.162Z" fill="#E1E6FC"/>
<path d="M166.243 511.637C166.243 511.637 208.731 514.895 213.751 513.463C218.771 512.03 217.354 500.491 217.354 500.491L238.236 498.334C238.236 498.334 238.237 510.582 236.789 512.03C235.193 513.948 233.971 516.148 233.185 518.516C233.185 519.24 224.546 570.466 224.546 570.466C224.546 570.466 210.855 572.623 208.699 572.623C206.544 572.623 214.459 530.197 214.459 527.222C214.459 524.246 214.459 518.579 212.303 518.579C210.147 518.579 168.493 519.823 168.241 515.179C167.902 513.841 167.212 512.618 166.243 511.637V511.637Z" fill="#BAC4F6"/>
<path d="M182.971 498.854C182.971 498.854 171.121 490.527 164.827 489.771C158.532 489.015 151.231 488.197 144.936 487.221C138.641 486.245 130.616 483.427 130.773 479.743C130.931 476.059 131.686 474.296 135.384 472.108C138.502 470.077 142.034 468.77 145.723 468.283C148.492 468.031 176.912 475.414 188.762 493.061L193.483 498.854H182.971Z" fill="#BAC4F6"/>
<path d="M141.946 478.263C141.946 478.263 152.836 478.121 158.8 480.058C163.463 481.801 167.982 483.907 172.318 486.355L190.147 498.775" fill="#BAC4F6"/>
<path d="M141.946 478.263C141.946 478.263 152.836 478.121 158.8 480.058C163.463 481.801 167.982 483.907 172.318 486.355L190.147 498.775" stroke="white" stroke-width="0.75" stroke-miterlimit="10" stroke-linecap="round"/>
<path d="M195.45 498.366C195.45 498.366 181.665 479.633 176.298 474.359C170.932 469.085 164.654 463.056 159.476 457.546C154.299 452.036 147.768 444.134 150.522 440.891C153.276 437.648 155.243 435.444 160.263 436.168C164.188 436.587 167.946 437.978 171.2 440.214C173.969 442.008 199.006 465.889 202.673 493.328L206.276 498.886L195.45 498.366Z" fill="#BAC4F6"/>
<path d="M163.064 447.188C163.064 447.188 173.796 453.61 178.013 459.781C181.995 465.543 188.305 475.854 188.305 475.854L195.465 495.517" stroke="white" stroke-width="0.75" stroke-miterlimit="10" stroke-linecap="round"/>
<path d="M202.342 499.295C202.342 499.295 186.243 464.331 183.238 457.42C180.232 450.509 167.942 440.104 165.22 433.051C162.497 425.998 160.766 420.866 163.646 416.994C166.526 413.121 173.922 409.91 178.643 412.271C183.096 414.444 188.887 421.055 191.374 424.408C193.356 427.053 206.528 474.548 205.442 485.505L207.96 499.531L202.342 499.295Z" fill="#E9EDFC"/>
<path d="M173.985 425.148C173.985 425.148 183.222 437.05 186.023 444.039C189.17 451.91 192.318 466.913 191.909 464.504L201.523 496.981" stroke="white" stroke-width="0.75" stroke-miterlimit="10" stroke-linecap="round"/>
<path d="M193.514 499.027C193.514 499.027 179.352 482.86 172.443 479.727C165.535 476.595 157.683 473.053 150.932 469.684C144.181 466.315 136.077 460.6 137.446 457.169C138.815 453.737 140.215 452.351 145.094 451.706C149.356 450.985 153.717 451.102 157.934 452.052C161.082 452.871 190.666 470.754 198.267 491.991L201.776 499.311L193.514 499.027Z" fill="#E9EDFC"/>
<path d="M150.507 460.097C150.507 460.097 162.765 464.127 168.855 468.251C173.493 471.646 177.889 475.36 182.011 479.365L195.607 499.169" stroke="white" stroke-width="0.75" stroke-miterlimit="10" stroke-linecap="round"/>
<path d="M230.558 499.389C230.558 499.389 243.383 491.518 250.196 490.715C257.01 489.912 264.894 489.235 271.724 488.275C278.553 487.315 287.224 484.654 287.051 481.128C286.878 477.602 286.075 475.917 282.063 473.824C278.618 471.862 274.812 470.62 270.874 470.171C267.868 469.935 237.119 476.972 224.294 493.785L219.117 499.326L230.558 499.389Z" fill="#BAC4F6"/>
<path d="M274.918 479.743C274.918 479.743 263.147 479.601 256.68 481.459C251.665 483.099 246.774 485.099 242.045 487.441L224.939 498.933" fill="#BAC4F6"/>
<path d="M274.918 479.743C274.918 479.743 263.147 479.601 256.68 481.459C251.665 483.099 246.774 485.099 242.045 487.441L224.939 498.933" stroke="white" stroke-width="0.75" stroke-miterlimit="10" stroke-linecap="round"/>
<path d="M217.04 498.933C217.04 498.933 231.942 481.049 237.765 476.012C243.587 470.974 250.354 465.212 255.971 459.954C261.589 454.696 268.639 447.156 265.649 444.039C262.659 440.922 260.551 438.828 255.106 439.489C250.921 439.867 246.876 441.185 243.272 443.346C240.267 445.046 213.184 467.873 209.219 494.068L205.332 499.373L217.04 498.933Z" fill="#BAC4F6"/>
<path d="M252.101 450.084C252.101 450.084 240.487 456.208 235.924 462.048C231.612 467.558 224.798 477.397 224.798 477.397L217.04 496.162" stroke="white" stroke-width="0.75" stroke-miterlimit="10" stroke-linecap="round"/>
<path d="M209.612 499.83C209.612 499.83 227.032 466.441 230.274 459.829C233.516 453.217 246.829 443.331 249.771 436.562C252.714 429.792 254.587 424.912 251.502 421.229C248.418 417.545 240.377 414.459 235.278 416.663C230.463 418.741 224.263 425.054 221.509 428.25C219.369 430.784 205.112 476.122 206.276 486.607L203.554 500.003L209.612 499.83Z" fill="#E9EDFC"/>
<path d="M207.929 499.405C207.929 499.405 209.33 466.819 212.65 456.24C214.9 449.234 217.103 437.349 220.046 430.658C222.989 423.968 218.472 415.168 215.451 411.468C212.429 407.769 204.436 408.477 199.274 410.665C194.459 412.743 191.689 419.465 191.075 423.055C190.524 426.329 202.091 465.638 200.863 480.011L201.855 499.594L207.929 499.405Z" fill="#BAC4F6"/>
<path d="M240.283 429.068C240.283 429.068 230.29 440.434 227.253 447.093C223.822 454.634 220.408 468.944 220.958 466.582L209.644 498.382" stroke="white" stroke-width="0.75" stroke-miterlimit="10" stroke-linecap="round"/>
<path d="M219.149 499.579C219.149 499.579 234.555 484.135 241.951 481.144C249.347 478.153 257.923 474.847 265.225 471.557C272.526 468.267 281.291 462.883 279.812 459.609C278.333 456.334 276.807 455.012 271.535 454.398C266.919 453.709 262.218 453.821 257.64 454.729C254.178 455.516 222.233 472.581 214.003 492.872L210.21 499.862L219.149 499.579Z" fill="#E9EDFC"/>
<path d="M265.697 462.379C265.697 462.379 252.431 466.221 245.853 470.156C240.872 473.367 236.114 476.912 231.612 480.766L216.599 497.422" stroke="white" stroke-width="0.75" stroke-miterlimit="10" stroke-linecap="round"/>
<path d="M204.75 417.624C204.75 417.624 207.425 445.535 205.867 453.044C205.222 456.192 205.537 475.823 205.537 475.823L204.892 497.563" stroke="white" stroke-width="0.75" stroke-miterlimit="10" stroke-linecap="round"/>
<path d="M205.348 235.626L322.128 237.783L324.519 246.079L203.963 242.946L205.348 235.626Z" fill="#BAC4F6"/>
<path d="M779.52 255.918L778.56 485.458L924.279 485.851C924.279 485.851 925.333 364.966 919.558 249.196L779.819 247.103L779.52 255.918Z" fill="#BAC4F6"/>
<path d="M642.409 285.592L638.538 485.993H763.091L762.209 285.592H642.409Z" fill="#BAC4F6"/>
<path d="M461.535 403.188L640.552 404.117L638.537 485.993L462.212 485.93L461.535 403.188Z" fill="#BAC4F6"/>
<path d="M446.791 287.67L447.232 486.418C447.232 486.418 448.318 498.917 460.261 499.452C472.205 499.988 942.974 500.192 942.974 500.192C942.974 500.192 947.175 487.016 945.554 486.465C943.933 485.914 462.213 485.93 462.213 485.93C462.213 485.93 462.354 478.893 462.354 474.39C462.354 469.384 462.087 281.405 462.087 281.405C457.21 283.999 452.086 286.098 446.791 287.67V287.67Z" fill="white"/>
<path d="M457.176 307.411L933.499 310.261L936.017 320.588L457.176 322.886V307.411Z" fill="white"/>
<path d="M591.581 152.648V486.339L604.154 487.315V143.943L591.581 152.648Z" fill="white"/>
<path d="M819.065 85.5068L818.782 486.339L830.395 485.379L832.205 93.3308L819.065 85.5068Z" fill="white"/>
<path d="M604.154 143.943L876 145.596L868.179 131.506L619.623 131.38L604.154 143.943Z" fill="white"/>
<path d="M649.978 209.667C665.239 209.667 677.611 197.291 677.611 182.023C677.611 166.756 665.239 154.38 649.978 154.38C634.717 154.38 622.345 166.756 622.345 182.023C622.345 197.291 634.717 209.667 649.978 209.667Z" fill="white"/>
<path d="M676.871 209.037C686.875 209.037 694.984 200.925 694.984 190.918C694.984 180.911 686.875 172.798 676.871 172.798C666.868 172.798 658.759 180.911 658.759 190.918C658.759 200.925 666.868 209.037 676.871 209.037Z" fill="white"/>
<path d="M859.602 235.689C875.15 235.689 887.754 223.08 887.754 207.526C887.754 191.972 875.15 179.363 859.602 179.363C844.054 179.363 831.45 191.972 831.45 207.526C831.45 223.08 844.054 235.689 859.602 235.689Z" fill="white"/>
<path d="M830.6 229.565C840.785 229.565 849.043 221.305 849.043 211.115C849.043 200.925 840.785 192.665 830.6 192.665C820.414 192.665 812.157 200.925 812.157 211.115C812.157 221.305 820.414 229.565 830.6 229.565Z" fill="white"/>
</g>
<path d="M465.315 570.278C461.629 564.155 458.692 562.531 449.571 562.281C440.449 562.031 428.329 562.156 428.329 562.156L428.204 575.088C428.204 575.088 438.263 580.899 443.636 583.772C443.948 583.96 444.823 584.46 445.448 584.835C446.385 585.272 447.384 585.647 448.384 585.897C453.694 587.021 458.505 586.459 461.941 583.023C465.752 579.212 469.001 576.4 465.315 570.278Z" fill="#4B44BE"/>
<path d="M396.529 558.782C396.217 559.032 395.405 559.657 394.842 560.094C394.093 560.782 393.406 561.594 392.781 562.406C389.782 566.904 388.47 571.59 390.407 576.088C392.531 581.024 393.968 585.147 400.965 583.96C407.962 582.773 410.649 580.649 414.273 572.34C417.896 564.03 422.332 552.66 422.27 552.66L410.337 547.724C410.337 547.724 401.215 554.909 396.529 558.782Z" fill="#4B44BE"/>
<path d="M429.141 562.718C429.141 562.718 429.329 575.776 427.205 576.088C425.08 576.4 395.779 572.152 384.096 571.527C372.413 570.903 345.923 563.343 332.928 548.661C321.682 535.978 323.432 521.921 331.741 521.921C340.05 521.921 347.673 514.861 368.789 524.92C389.906 534.979 412.273 536.666 424.831 535.666C437.388 534.666 472.562 528.169 475.311 526.17C478.06 524.17 491.243 518.423 509.611 520.422C527.979 522.421 519.294 536.978 515.421 542.601C509.986 550.41 497.115 558.782 486.37 559.157C475.624 559.532 429.141 562.718 429.141 562.718Z" fill="url(#paint0_linear)"/>
<path d="M407.4 334.368C401.215 336.617 393.343 367.23 393.343 367.23L393.218 367.105L392.343 371.354L391.281 376.914L393.343 410.151L413.335 420.147L459.255 432.518L471.938 450.573C471.938 450.573 500.365 479.5 500.552 481.499C500.739 483.498 470.001 493.682 467.065 494.119C460.005 495.181 512.235 482.374 495.491 462.069C488.369 453.385 477.936 427.27 457.256 409.964C445.261 399.968 448.634 371.541 444.386 353.548C439.075 331.057 435.827 324.309 430.516 324.309C425.706 324.309 419.021 330.057 407.4 334.368Z" fill="url(#paint1_linear)"/>
<path d="M472.375 407.028C462.754 398.219 459.505 396.094 451.071 399.093C442.636 402.092 438.513 404.841 427.017 406.715C419.957 407.965 412.648 407.028 406.088 404.154L382.409 406.528C379.41 406.153 345.736 469.379 344.924 482.499C344.424 490.558 362.729 502.991 367.852 504.241C369.914 504.74 373.6 484.873 374.787 483.061L367.103 480.687C368.477 477.251 373.1 468.754 376.162 464.193C377.099 462.756 384.409 450.699 385.408 446.075C385.596 446.513 386.658 455.259 387.657 458.071C389.532 463.256 392.093 466.193 392.093 470.316C392.093 474.44 391.593 490.808 388.594 498.18C385.596 505.553 381.222 522.609 381.222 522.609L456.943 522.171C456.943 522.171 454.194 489.621 455.319 478.438C455.319 478.438 454.132 473.94 456.381 467.442C460.067 456.696 461.129 440.702 460.504 438.203C459.567 434.267 482.746 467.567 487.807 476.001C489.931 479.5 461.129 485.685 458.755 488.372C456.256 491.183 461.192 498.805 461.192 498.805C461.192 498.805 511.422 492.683 511.173 484.998C510.923 477.313 483.558 417.211 472.375 407.028Z" fill="url(#paint2_linear)"/>
<path d="M413.46 316.375C413.46 316.375 399.403 316.937 395.342 331.682C391.281 346.426 390.719 366.981 390.594 370.167C390.469 373.541 392.031 393.283 384.471 401.53C377.974 408.652 380.598 415.524 378.973 421.21L378.224 430.644C378.349 431.768 379.161 432.705 380.223 433.08C381.222 433.393 384.721 431.768 385.346 431.518C394.093 428.02 394.093 425.208 397.404 422.397C400.153 420.085 407.712 414.712 409.962 412.588C412.211 410.464 413.773 408.59 413.898 405.903C414.335 392.221 411.961 379.601 408.962 372.916C405.963 366.231 400.215 354.923 405.026 347.425C409.837 339.928 418.521 332.431 419.021 330.557C419.52 328.683 419.77 337.804 425.081 340.99C430.391 344.177 434.827 348.613 436.451 352.923C437.826 356.547 439.638 362.732 434.64 373.416C429.641 384.099 425.581 397.844 432.64 408.027C439.7 418.211 454.569 429.207 457.006 434.33C459.755 440.015 457.131 453.385 456.631 461.444C456.131 469.504 472.375 447.45 471.875 436.954C471.376 426.458 473.125 421.96 463.066 405.841C453.008 389.722 446.448 362.107 446.198 355.422C445.948 348.737 442.949 330.182 436.889 324.872C431.641 320.373 430.516 316 419.77 316C417.646 316 415.522 316.125 413.46 316.375Z" fill="url(#paint3_linear)"/>
<path opacity="0.07" d="M381.41 539.79L452.383 540.164C452.383 540.164 444.073 546.662 440.075 547.412C436.076 548.161 418.958 556.658 412.585 553.409C408.087 550.973 381.41 539.79 381.41 539.79Z" fill="black"/>
<path opacity="0.07" d="M420.957 380.413C420.957 380.413 427.58 382.1 430.328 378.226C436.514 369.48 430.891 382.662 430.891 382.662C430.891 382.662 429.079 387.785 429.204 390.347C429.329 392.908 422.082 380.788 420.957 380.413Z" fill="black"/>
<path opacity="0.07" d="M394.468 425.396C393.655 426.395 392.468 427.208 391.844 429.769C390.781 433.892 389.657 438.516 386.783 442.764C385.096 445.263 386.033 454.947 388.845 461.07C389.657 462.819 392.156 467.38 392.093 468.442L391.906 477.313H399.528C399.528 477.313 406.026 478.001 404.651 472.628C403.464 467.88 397.279 450.199 401.465 446.325C409.337 439.14 399.403 424.771 403.089 420.148C406.276 416.149 410.836 413.275 410.836 411.963C410.836 411.464 409.649 413.088 408.837 413.65C407.275 414.775 406.463 415.649 405.151 416.524C403.714 417.461 401.527 419.023 400.09 420.085C398.029 421.647 396.154 423.397 394.468 425.396Z" fill="black"/>
<path d="M364.791 482.311C364.791 482.311 364.729 477.688 369.29 477.501C373.85 477.313 470.438 477.438 470.438 477.438C470.438 477.438 474.687 477.938 474.812 481.374C474.937 484.81 474.937 535.853 474.937 535.853C474.937 535.853 474.999 539.789 470.813 539.914C466.627 540.039 368.165 540.039 368.165 540.039C368.165 540.039 364.479 539.102 364.541 535.416C364.604 531.73 364.791 482.311 364.791 482.311Z" fill="white"/>
<path d="M420.145 512.925C422.457 512.925 424.331 511.05 424.331 508.739C424.331 506.427 422.457 504.553 420.145 504.553C417.833 504.553 415.959 506.427 415.959 508.739C415.959 511.05 417.833 512.925 420.145 512.925Z" fill="url(#paint4_linear)"/>
<defs>
<linearGradient id="paint0_linear" x1="520.89" y1="547.809" x2="325" y2="547.809" gradientUnits="userSpaceOnUse">
<stop stop-color="#5ACEED"/>
<stop offset="1" stop-color="#538BD6"/>
</linearGradient>
<linearGradient id="paint1_linear" x1="391.281" y1="409.245" x2="500.553" y2="409.245" gradientUnits="userSpaceOnUse">
<stop stop-color="#F87B58"/>
<stop offset="0.5" stop-color="#F8C548"/>
<stop offset="1" stop-color="#F89C51"/>
</linearGradient>
<linearGradient id="paint2_linear" x1="344.914" y1="460.211" x2="511.174" y2="460.211" gradientUnits="userSpaceOnUse">
<stop stop-color="#57BCE5"/>
<stop offset="1" stop-color="#8764F4"/>
</linearGradient>
<linearGradient id="paint3_linear" x1="378.224" y1="389.59" x2="471.887" y2="389.59" gradientUnits="userSpaceOnUse">
<stop stop-color="#5ACEED"/>
<stop offset="1" stop-color="#538BD6"/>
</linearGradient>
<linearGradient id="paint4_linear" x1="424.331" y1="508.739" x2="415.984" y2="508.739" gradientUnits="userSpaceOnUse">
<stop stop-color="#59C2E9"/>
<stop offset="1" stop-color="#5BD3EF"/>
</linearGradient>
<clipPath id="clip0">
<rect width="890" height="503" fill="white" transform="translate(59 72)"/>
</clipPath>
</defs>
</svg>
